<svg xmlns="http://www.w3.org/2000/svg" width="160" height="22" viewBox="0 0 160 22" fill="none"><path d="M9.38287 0.00130397C9.23149 0.0084018 9.08441 0.0459456 8.94259 0.134388C9.52641 0.248327 10.2105 0.324909 10.579 0.844171C10.7637 1.03563 10.7062 1.32981 10.5215 1.49792C10.1723 1.90418 9.57273 2.03166 9.05991 1.90184C7.32108 1.50119 5.6766 0.722294 3.89002 0.519632C2.9331 0.396354 1.9977 0.845572 1.33742 1.49558C0.72786 2.09236 0.506236 2.99827 0.626904 3.81639C0.761735 4.4636 1.25321 5.13602 1.96421 5.23128C1.54316 4.78487 1.46326 4.00971 1.89962 3.54555C2.1465 3.24669 2.58525 3.2056 2.94984 3.2607C4.33452 3.51193 5.68378 3.91865 7.06462 4.19229C7.83782 4.39776 8.60193 4.64291 9.39235 4.783C9.4067 5.70478 9.4067 6.62563 9.39235 7.54742C8.88231 7.91912 8.39523 8.31931 7.89476 8.70315C8.38183 9.05898 8.88422 9.39239 9.38766 9.7258C9.42019 11.0296 9.38287 12.3329 9.4068 13.6366C8.58288 14.2577 7.47897 14.3585 6.47621 14.2437C5.41106 14.1859 4.46561 13.5666 3.76801 12.8148C4.93747 12.2058 6.12933 11.6315 7.32548 11.0731C7.36749 9.01742 7.33304 6.96091 7.34453 4.90441C5.84981 5.51613 4.3704 6.16054 2.88047 6.7816C3.31108 5.70665 4.18705 4.83577 5.23211 4.31837C4.95929 4.33425 4.67317 4.31464 4.41872 4.43044C2.46277 5.18412 0.850825 6.80401 0.24423 8.7802C-0.161507 10.0354 -0.0308867 11.4077 0.409299 12.635C0.954747 14.0004 1.96383 15.209 3.30161 15.899C4.05289 16.2782 4.86149 16.6335 5.72273 16.6438C7.50548 16.7886 9.38096 16.1322 10.5839 14.8227C11.1092 14.2726 11.3739 13.5554 11.6341 12.8615C11.8754 12.1779 11.9844 11.4503 11.9595 10.7274C11.3825 11.8444 10.615 12.8936 9.56718 13.6343C9.57378 12.3352 9.56479 11.0366 9.56947 9.73747C10.0251 9.39846 10.4824 9.05991 10.9235 8.70315C10.4709 8.31184 10.0211 7.92099 9.56947 7.52874C9.57148 6.61536 9.56756 5.70011 9.56947 4.78767C10.5886 4.73537 11.7613 4.2105 12.036 3.16731C12.2273 2.48648 12.3273 1.68003 11.8996 1.06364C11.5063 0.626567 10.9963 0.246926 10.3972 0.141393C10.0655 0.113095 9.71579 -0.0141992 9.38287 0.00130397ZM4.61489 6.26561C4.61107 8.24553 4.62686 10.2254 4.60772 12.2055C4.26897 12.3353 3.93586 12.4772 3.60295 12.621C2.9886 11.7534 2.60679 10.7321 2.43071 9.69545C2.38286 8.82036 2.54937 7.93406 2.86133 7.11314C3.45079 6.8395 4.02734 6.54392 4.61489 6.26561ZM121.499 0.00130397C121.335 -0.00355244 121.174 0.0279208 121.023 0.134388C121.367 0.211904 121.731 0.245058 122.054 0.402892C122.341 0.537377 122.531 0.815686 122.63 1.10334C122.684 1.41433 122.45 1.70105 122.171 1.81779C121.669 2.0438 121.1 1.9392 120.59 1.80378C119.365 1.43768 118.172 0.964181 116.922 0.6784C116.28 0.544848 115.607 0.418768 114.958 0.585007C114.255 0.77833 113.541 1.10707 113.126 1.71973C112.59 2.39495 112.522 3.32374 112.784 4.11758C112.999 4.64711 113.435 5.16778 114.051 5.23595C113.85 4.98379 113.505 4.7293 113.604 4.36974C113.66 4.01298 113.811 3.65108 114.104 3.41947C114.397 3.20373 114.798 3.20653 115.138 3.30273C116.384 3.52874 117.6 3.87009 118.831 4.15494C119.666 4.32771 120.467 4.6317 121.307 4.783C121.322 5.70105 121.311 6.6191 121.315 7.53808C120.863 7.92753 120.411 8.31651 119.965 8.71249C120.415 9.0515 120.857 9.39892 121.312 9.73047C121.319 11.0371 121.31 12.3455 121.319 13.653C120.529 14.231 119.489 14.3735 118.53 14.2436C117.471 14.1819 116.544 13.56 115.841 12.8241C116.129 12.6279 116.458 12.5019 116.769 12.3431C117.644 11.9229 118.507 11.483 119.389 11.0777C119.416 9.02022 119.392 6.96185 119.401 4.90441C117.915 5.52173 116.442 6.16801 114.951 6.77226C115.292 5.98309 115.836 5.26117 116.568 4.77833C116.787 4.58314 117.009 4.37861 117.31 4.31137C117.009 4.33191 116.698 4.32211 116.425 4.45846C114.324 5.28779 112.533 7.0968 112.138 9.31954C111.987 10.4477 112.095 11.6193 112.499 12.6887C113.016 13.9439 113.928 15.059 115.114 15.7706C115.681 16.1078 116.291 16.3791 116.927 16.5667C118.45 16.8142 120.084 16.6003 121.417 15.8102C122.297 15.2116 123.113 14.4355 123.482 13.4287C123.877 12.5742 124.036 11.6407 124.056 10.7087C123.872 10.9431 123.765 11.2219 123.609 11.4721C123.102 12.3015 122.447 13.0528 121.649 13.6272C121.659 12.3244 121.637 11.0215 121.661 9.7187C122.113 9.40023 122.537 9.04534 122.991 8.72874C122.572 8.30474 122.097 7.93864 121.652 7.54265C121.643 6.62928 121.662 5.71496 121.642 4.80159C122.518 4.74648 123.403 4.36311 123.874 3.61317C124.364 2.84268 124.361 1.79295 123.888 1.01685C123.516 0.536817 122.931 0.227687 122.326 0.138965C122.055 0.117484 121.772 0.00952251 121.499 0.00130397ZM116.693 6.26327C116.704 8.23946 116.693 10.2152 116.697 12.1914C116.352 12.3324 116.011 12.4813 115.666 12.6233C115.167 11.9378 114.778 11.1668 114.578 10.3469C114.357 9.27284 114.415 8.10871 114.927 7.11781C115.52 6.84137 116.105 6.55185 116.693 6.26327ZM45.5249 0.659721C46.0952 1.63474 45.7383 2.95624 44.88 3.65855C44.3527 3.99383 43.746 4.17875 43.1517 4.36647C43.1651 8.35433 43.1538 12.3431 43.1556 16.331C43.1977 16.5131 43.0264 16.6559 42.8504 16.5831C42.5029 16.5673 42.4111 16.2096 42.2637 15.9686C40.1259 12.1321 38.0112 8.28242 35.8561 4.45426C35.815 7.27004 35.8552 10.0886 35.836 12.9053C36.8542 13.0931 37.8456 13.5722 38.5116 14.3623C38.8207 14.1288 39.0207 13.7179 39.4169 13.6235C39.3164 13.8019 39.17 13.9484 39.0303 14.098C38.2599 14.9301 37.4915 15.766 36.7222 16.6C36.3653 16.161 35.8897 15.7445 35.2944 15.6847C34.903 15.6698 34.4505 15.6894 34.1653 15.991C33.837 16.2768 33.617 16.7587 33.8514 17.1668C34.126 17.7524 34.8169 17.9112 35.3987 18.0513C34.6715 18.1914 33.8572 18.1092 33.2706 17.6338C32.8036 17.2444 32.3796 16.7502 32.2582 16.147C32.0946 15.3158 32.3491 14.3921 32.9855 13.8028C33.6812 13.1313 34.7012 12.881 35.6562 12.9342C35.6821 11.7069 35.6706 10.4798 35.662 9.25267C35.1979 9.18076 34.5653 9.2452 34.3491 9.7187C34.2237 10.1025 34.5186 10.4257 34.8103 10.6358C34.4486 10.5742 34.0467 10.5069 33.7854 10.2333C33.4773 9.86252 33.2381 9.42451 33.1491 8.95195C33.0601 8.34396 33.2237 7.65099 33.7424 7.25968C34.285 6.84968 35.0074 6.79365 35.6696 6.80859V4.21415C35.4294 3.86206 35.1988 3.4586 34.7865 3.27649C34.5166 3.16722 34.1645 3.12799 33.932 3.33345C33.6104 3.59962 33.5328 4.02269 33.4056 4.39346C33.2822 3.48849 33.375 2.4621 34.0248 1.75232C34.8095 0.760492 36.4697 0.724069 37.3281 1.64118C37.6994 2.01382 37.9539 2.47331 38.2066 2.92626C39.7951 5.68695 41.3521 8.46537 42.9568 11.2167C42.9664 8.93514 42.9712 6.65178 42.9549 4.37011C42.6792 4.26551 42.3721 4.26831 42.0917 4.17305C41.5692 4.03857 41.1338 3.70983 40.7472 3.354C40.506 3.63044 40.2629 3.90595 40.0381 4.19453C39.9855 4.16652 39.8812 4.11141 39.8286 4.0834C40.6516 3.07102 41.5338 2.10441 42.3903 1.11818C42.8391 1.57954 43.4249 1.95685 44.0927 1.99888C44.79 1.92052 45.4761 1.37604 45.5249 0.659721ZM98.9426 2.86845C100.091 2.13812 101.237 1.40126 102.389 0.676532C102.399 4.98566 102.381 9.29572 102.399 13.6049C102.648 13.9355 102.987 14.2072 103.289 14.4978C103.478 14.2998 103.676 14.1102 103.871 13.9187C103.917 13.9635 104.009 14.0532 104.055 14.0971C103.136 14.875 102.245 15.6828 101.32 16.4525C100.737 15.8688 100.134 15.3056 99.556 14.719C99.2966 14.9441 99.0594 15.1908 98.8154 15.4308C98.7655 15.3934 98.666 15.3177 98.6163 15.2804C99.0574 14.8685 99.5302 14.4912 99.9761 14.0831C99.9723 10.8172 99.979 7.55125 99.9723 4.28625C99.9616 3.67536 99.6429 2.9441 98.9426 2.86845ZM13.199 2.99547C14.1875 2.27635 15.1569 1.53107 16.1463 0.814753C16.1511 3.18879 16.1454 5.56376 16.1492 7.93873C16.9865 7.26444 17.8304 6.59855 18.6591 5.91492C19.3242 6.58828 19.9452 7.30366 20.6304 7.95554C20.9195 7.75288 21.216 7.56049 21.5194 7.37931C21.4649 7.75568 21.0036 7.88456 20.7644 8.147C20.7672 9.44515 20.7644 10.7424 20.7653 12.0405C20.7845 13.011 20.6409 13.9747 20.6114 14.9441C20.5663 15.9957 20.1482 17.0707 19.308 17.7608C18.6247 18.3568 17.6908 18.5715 16.7999 18.6434C16.7846 18.6639 16.7521 18.706 16.7358 18.7273L16.7597 18.6509C16.4526 18.6509 16.1463 18.6396 15.8401 18.6172C16.2249 18.423 16.6602 18.2988 16.9635 17.9775C17.3119 17.5982 17.7176 17.2369 17.8889 16.741C18.1693 15.9845 18.1779 15.1692 18.2056 14.3753C18.198 12.5962 18.2143 10.8162 18.197 9.03796C17.7913 8.5215 17.3052 8.06575 16.8746 7.56703C16.6392 7.81265 16.357 8.01905 16.1549 8.29176C16.1387 10.1279 16.153 11.9649 16.1482 13.8009C16.3924 14.0382 16.6353 14.2773 16.8813 14.5126C17.0785 14.3193 17.2755 14.1251 17.4726 13.9308C17.5167 13.9728 17.6037 14.0569 17.6478 14.0989C16.6908 14.8292 15.7436 15.5709 14.7866 16.3002C14.1809 15.7753 13.5895 15.2355 12.9934 14.7003C12.7934 14.846 12.5934 14.9936 12.3924 15.1383C12.3494 15.0944 12.2651 15.0066 12.2222 14.9627C12.6815 14.6741 13.1322 14.3725 13.5867 14.0783C13.5858 10.8133 13.5858 7.54919 13.5867 4.28419C13.5771 4.03483 13.5896 3.76586 13.4547 3.54359C13.3656 3.37361 13.1647 3.31945 13.0144 3.21671C12.9808 3.10847 13.1397 3.06271 13.199 2.99547ZM79.1069 1.2621C78.2074 1.97282 77.328 2.70548 76.4371 3.42647C76.4275 2.74658 76.4491 2.06808 76.4251 1.38818C76.2874 1.38165 76.2267 1.44235 76.2457 1.5703C76.2409 6.37628 76.2472 11.1818 76.2434 15.9878C75.7573 15.8971 75.2702 15.8024 74.7889 15.6959C74.7812 11.6427 74.7884 7.59029 74.7865 3.53621C74.776 3.02349 74.6056 2.50796 74.2602 2.11664C73.8296 1.61886 73.1564 1.38772 72.5067 1.34382C71.7363 1.32234 71.0301 1.71739 70.4923 2.22638C69.9975 2.68494 69.7321 3.39379 69.8727 4.0522C69.933 3.64408 70.0693 3.18412 70.454 2.95718C70.876 2.7816 71.4382 2.92309 71.6908 3.30973C71.9071 3.62166 71.9286 4.01158 71.9372 4.37674C71.9391 5.47224 71.9362 6.56773 71.9372 7.66416C71.1966 7.67537 70.3219 7.79211 69.8941 8.46266C69.4635 8.98753 69.3305 9.73187 69.6262 10.3492C69.8204 10.96 70.4711 11.2748 71.0758 11.3718C70.7372 11.1581 70.3926 10.7817 70.5926 10.3632C70.8615 9.94294 71.4729 9.8813 71.9275 10.0036C71.9457 11.948 71.937 13.8916 71.9323 15.836C71.2528 16.0675 70.5916 16.4697 70.2289 17.0945C69.9648 17.5399 69.9581 18.0728 69.9801 18.5724C70.0615 19.4484 70.6538 20.2482 71.449 20.6481C72.05 20.9226 72.7265 20.931 73.3772 20.9096C75.2241 20.8022 76.9786 20.0868 78.8293 20.0271C79.3805 19.9868 79.7035 20.5814 79.559 21.0474C79.4489 21.4686 79.0872 21.7534 78.7456 22C79.3953 21.8655 80.0422 21.6274 80.5494 21.1967C81.1216 20.7233 81.3848 19.9597 81.3485 19.2425C81.3054 18.5327 80.7189 18.0046 80.1093 17.6992C79.3064 17.2397 78.3371 17.342 77.4538 17.4354C75.7945 17.6222 74.1773 18.1364 72.5017 18.1802C71.9334 18.2176 71.4028 17.8249 71.2888 17.2813C71.1606 16.7575 71.5965 16.2992 72.0376 16.0742C72.9925 15.6344 74.0917 15.7972 75.0878 16.0019C76.2428 16.1196 77.3265 16.5795 78.4825 16.6953C79.139 16.7682 79.8362 16.645 80.3748 16.2565C80.9298 15.9221 81.1801 15.2706 81.1953 14.6571C81.2021 10.8318 81.1882 7.00677 81.2026 3.18151C81.5605 2.87798 81.9551 2.60574 82.2672 2.25459C81.8307 2.36012 81.5571 2.75937 81.2002 3.00406C80.4948 2.43138 79.8045 1.84394 79.1069 1.2621ZM77.1499 3.19533C77.5518 3.53154 77.9475 3.87429 78.3484 4.21331C78.3494 5.41807 78.3456 6.62283 78.3484 7.8276C78.158 8.01064 77.9499 8.20397 77.6714 8.23852C77.2178 8.33191 76.7762 8.11291 76.4346 7.83927C76.4365 6.43278 76.4356 5.02675 76.4346 3.62026C76.6739 3.48017 76.9127 3.34009 77.1499 3.19533ZM76.4346 8.17315C77.0222 8.46453 77.7782 8.55279 78.3484 8.17548C78.3465 8.72183 78.3465 9.27051 78.3484 9.81686C78.1169 9.59645 77.8194 9.42134 77.4872 9.42227C77.0969 9.41387 76.738 9.59365 76.4346 9.81686C76.4365 9.26958 76.4336 8.72136 76.4346 8.17315ZM77.4824 9.59505C77.8614 9.60439 78.1523 9.88036 78.3484 10.1717C78.3457 11.6968 78.3495 13.2229 78.3484 14.748C78.3791 15.2159 78.049 15.6161 77.6883 15.885C77.34 16.1549 76.8672 16.1643 76.4443 16.1419C76.4203 14.1498 76.4432 12.1546 76.4346 10.1624C76.7083 9.87196 77.0547 9.58944 77.4824 9.59505ZM124.593 3.74821C125.213 3.21774 125.797 2.64805 126.43 2.13252C126.966 2.68447 127.531 3.20934 128.075 3.75288C127.421 4.34966 126.764 4.94177 126.102 5.52921C125.602 4.93243 125.087 4.34966 124.593 3.74821ZM53.0244 4.31604C53.4119 4.05641 53.9019 4.07228 54.3498 4.01625C54.012 4.27681 53.6369 4.5794 53.5909 5.02862C53.5153 5.43021 53.7756 5.79164 54.079 6.03259C54.6311 6.46407 55.3402 6.70502 55.79 7.2579C56.0062 7.525 56.1373 7.86308 56.1278 8.20583C56.1249 10.0176 56.1297 11.8285 56.1249 13.6394C56.6186 14.0289 57.1143 14.4136 57.6071 14.8031C57.7506 14.7125 57.8941 14.622 58.0387 14.5313C58.032 12.5542 58.0492 10.5761 58.03 8.59995C57.7765 8.30763 57.4254 8.09843 57.1353 7.83787C57.8473 7.19813 58.5449 6.54158 59.2712 5.91772C59.9027 6.5229 60.5668 7.0954 61.2147 7.68377C60.9688 7.93769 60.7157 8.18497 60.4558 8.42531C60.4511 10.1633 60.4558 11.9014 60.453 13.6394C61.0998 14.1288 61.7468 14.6191 62.4003 15.101C62.4923 15.0486 62.5851 14.9973 62.6798 14.946C62.6702 12.8233 62.6808 10.7013 62.674 8.57847C62.3745 8.32911 62.0644 8.09096 61.7687 7.83693C62.4673 7.19253 63.1745 6.55933 63.8769 5.91959C64.5764 6.45379 65.2768 6.988 65.9724 7.52687C66.2137 7.26724 66.4605 7.00948 66.736 6.78253C66.7715 6.83203 66.8442 6.93196 66.8796 6.98146C66.2844 7.49885 65.693 8.02279 65.116 8.55979C65.0661 10.2521 65.115 11.9499 65.0921 13.6431C63.5772 14.6144 61.9954 15.5008 60.4586 16.4459C59.648 15.879 58.8605 15.2813 58.0605 14.7013C57.3428 15.2644 56.6241 15.8285 55.9016 16.3861C55.7983 16.4982 55.6921 16.3347 55.6069 16.288C54.9312 15.7585 54.2596 15.2242 53.5753 14.7069C53.2883 14.9515 52.9869 15.1803 52.6989 15.425C52.653 15.382 52.563 15.297 52.5171 15.255C52.8683 15.0179 53.2118 14.7684 53.563 14.5312C53.565 12.8903 53.565 11.2503 53.563 9.60943C53.5621 9.17049 53.4042 8.72594 53.097 8.40093C52.7592 8.04324 52.3046 7.79201 52.0358 7.37268C51.7381 6.88517 51.7114 6.28092 51.8252 5.73635C51.9918 5.12108 52.4924 4.65225 53.0244 4.31604ZM159.525 5.48811C159.593 5.65996 159.615 5.85188 159.529 6.02279C159.318 6.49442 158.742 6.6756 158.252 6.66719C157.739 6.62236 157.339 6.26234 156.993 5.92239C156.414 6.30156 155.831 6.67793 155.252 7.05711C154.584 7.49605 153.847 7.82012 153.106 8.12178C153.103 9.0501 153.107 9.97656 153.104 10.9049C153.644 11.3448 154.2 11.765 154.73 12.217C154.324 12.6373 153.923 13.0636 153.539 13.5034C153.145 13.9667 152.773 14.5018 152.75 15.1239C152.727 15.8308 153.037 16.5962 153.678 16.9706C153.961 17.1331 154.306 17.2779 154.635 17.1527C154.225 17.0099 153.721 16.7203 153.757 16.2328C153.871 15.7715 154.432 15.4628 154.898 15.5954C155.381 15.7299 155.78 16.0671 156.089 16.4453C157.331 15.5721 158.639 14.7918 159.998 14.1035C159.988 12.9259 160.015 11.7453 159.986 10.5686C159.386 10.1576 158.814 9.70983 158.221 9.29143C158.849 8.51534 159.48 7.69442 159.742 6.72314C159.84 6.31324 159.873 5.79631 159.525 5.48811ZM155.525 7.25323C155.928 7.81826 156.461 8.36787 157.192 8.48368C157.92 8.65085 158.626 8.26561 159.104 7.75288C158.45 8.93243 157.436 9.87943 156.388 10.7274C156.105 10.4342 155.8 10.161 155.52 9.86589C155.531 8.99547 155.522 8.12365 155.525 7.25323ZM156.551 10.7741C156.865 11.0319 157.175 11.2942 157.489 11.554C157.632 11.638 157.562 11.8136 157.582 11.9462C157.573 12.9576 157.595 13.9724 157.57 14.9838C157.336 14.4663 156.984 13.985 156.489 13.6785C155.77 13.2201 154.782 13.1935 154.051 13.6388C153.716 13.8199 153.448 14.0904 153.194 14.365C153.557 13.6739 154.143 13.1285 154.695 12.5811C155.324 11.9892 155.954 11.398 156.551 10.7741ZM27.3323 5.92005C26.5055 6.38702 25.7066 6.89647 24.897 7.38865C24.2108 7.73794 23.5138 8.06761 22.8228 8.40663C22.8257 10.2978 22.82 12.189 22.8277 14.0802C22.533 14.3035 22.1888 14.4641 21.9209 14.7201C21.9726 14.7498 22.075 14.8106 22.1266 14.8415C22.3582 14.6463 22.5873 14.4473 22.8419 14.2811C23.6984 14.9759 24.5066 15.7282 25.3611 16.4268C25.4031 16.4054 25.4878 16.362 25.5309 16.3404C26.9777 15.2459 28.4395 14.1676 29.8872 13.074L29.7078 12.9199C28.9021 13.5326 28.1183 14.1775 27.3203 14.7994C26.6609 14.2204 26.0231 13.6185 25.3657 13.0367C25.1418 12.877 25.2672 12.5739 25.2509 12.3479C26.6011 11.3831 27.9519 10.4179 29.282 9.42704C28.618 8.26514 27.9754 7.09306 27.3323 5.92005ZM25.2462 7.31394C25.9295 8.40943 26.6161 9.50119 27.2917 10.6014C26.6046 11.073 25.9232 11.5502 25.2439 12.0303C25.2371 10.4585 25.2338 8.88573 25.2462 7.31394ZM49.71 5.91772C49.1273 6.29222 48.5407 6.66206 47.9445 7.01508C47.0728 7.54742 46.1279 7.94807 45.2149 8.40663C45.2178 10.2969 45.2096 12.1876 45.2173 14.0779C44.936 14.2824 44.625 14.4445 44.3513 14.6593C44.38 14.7088 44.4398 14.8082 44.4685 14.8577C44.7718 14.6588 45.0713 14.4547 45.3823 14.267C46.1661 14.9983 46.9613 15.7184 47.7507 16.4431C49.2274 15.3728 50.6761 14.2643 52.1383 13.1744C52.3259 13.1371 52.1718 12.8401 52.0522 12.9548C51.2599 13.5544 50.4911 14.1848 49.7101 14.7993C49.0977 14.2063 48.4896 13.6106 47.88 13.0155C47.6828 12.8465 47.7996 12.5645 47.7891 12.3431C49.0886 11.4017 50.3479 10.4066 51.6503 9.46897C51.0502 8.26421 50.3483 7.10474 49.71 5.91772ZM47.7723 7.35129C48.4421 8.41597 49.056 9.51613 49.6742 10.6107C49.0359 11.0674 48.4192 11.5521 47.7865 12.0162C47.757 10.4622 47.7866 8.90628 47.7723 7.35129ZM87.4561 5.92239C86.8169 6.28569 86.1862 6.66019 85.5662 7.05244C84.8379 7.48578 84.0422 7.79351 83.2671 8.13346C83.2853 10.1171 83.2724 12.1012 83.2743 14.085C83.015 14.3371 82.7533 14.5884 82.5016 14.846C82.5543 14.8432 82.6595 14.8358 82.7121 14.8321C82.8959 14.6406 83.0872 14.4538 83.2767 14.267C84.1466 14.9618 85.0035 15.6717 85.8676 16.3731C86.0101 16.5075 86.1714 16.3073 86.3102 16.2586C87.6996 15.5171 89.0124 14.6434 90.444 13.9775C90.466 12.1293 90.4507 10.2815 90.4537 8.43231C90.712 8.18015 90.9737 7.92893 91.2264 7.67116C91.1757 7.6721 91.0746 7.6763 91.023 7.67817C90.7818 7.87149 90.5379 8.05968 90.2957 8.2502C89.3484 7.47504 88.4053 6.69381 87.4561 5.92239ZM85.8364 7.29292C86.5197 7.91959 87.2153 8.53691 87.8987 9.16544C87.892 11.1332 87.8939 13.1001 87.8939 15.0678C87.1934 14.4683 86.5283 13.8324 85.8365 13.2233L85.8364 7.29292Z" fill="#171A1E"></path><path d="M102.509 10.3305C103.495 8.85398 104.501 7.39052 105.512 5.92893C105.949 6.29175 106.49 6.51645 107.061 6.57333C107.62 6.57427 108.096 6.2502 108.517 5.92612C108.411 6.72276 108.139 7.55022 107.513 8.10404C106.966 8.59342 106.138 8.71109 105.45 8.472C105.044 8.33752 104.669 8.12645 104.333 7.86775C104.273 8.00411 104.225 8.14513 104.189 8.28895C105.588 10.3455 106.962 12.4206 108.337 14.494C108.652 14.2941 108.929 14.0418 109.207 13.7963C109.262 13.8298 109.37 13.8972 109.425 13.9307C108.436 14.7908 107.416 15.6164 106.403 16.4495C105.1 14.4127 103.827 12.3581 102.509 10.3305ZM149.838 5.92005C149.229 6.28148 148.618 6.64244 148.018 7.01508C147.186 7.57917 146.232 7.93033 145.35 8.40663C145.36 10.2969 145.35 12.1886 145.355 14.0779C145.051 14.274 144.75 14.4738 144.446 14.6663C144.485 14.713 144.564 14.8087 144.604 14.8554C144.866 14.6658 145.103 14.4407 145.386 14.2763C146.175 14.9927 147.001 15.6702 147.802 16.3753C147.879 16.4949 147.99 16.3725 148.068 16.324C149.511 15.2388 150.958 14.1601 152.403 13.0786C152.233 12.7891 152.041 13.0697 151.871 13.1883C151.193 13.7273 150.516 14.2656 149.836 14.8017C149.14 14.1825 148.468 13.5404 147.759 12.9361C147.748 12.7417 147.748 12.5469 147.757 12.3524C149.111 11.3951 150.449 10.4154 151.793 9.44329C151.146 8.26561 150.496 7.09026 149.838 5.92005ZM147.75 7.34662C148.482 8.40289 149.125 9.51893 149.812 10.606C149.115 11.0721 148.438 11.5652 147.745 12.0349C147.756 10.4725 147.746 8.90908 147.75 7.34662ZM93.9942 6.07555C94.5416 6.56213 95.0018 7.13556 95.5101 7.66136C96.0632 7.14396 96.6038 6.61162 97.1378 6.07462C97.5263 6.31744 97.9311 6.65832 98.4296 6.56026C98.7808 6.53691 98.9636 6.2007 99.2622 6.06341C99.2631 6.77786 99.0947 7.52874 98.6104 8.08349C98.0554 8.73164 97.0056 8.92122 96.2632 8.47667C95.978 8.34125 95.7884 8.08162 95.5225 7.92192C95.5291 9.87569 95.5262 11.8285 95.5244 13.7823C95.9187 14.0784 96.3139 14.3735 96.7196 14.6555C97.0143 14.4669 97.2411 14.1194 97.6134 14.0868C96.7387 14.8993 95.822 15.6726 94.9101 16.4468C94.2249 15.8164 93.5244 15.2019 92.8468 14.5641C92.5827 14.7956 92.3387 15.0479 92.0871 15.2916C92.0469 15.2459 91.9666 15.1552 91.9264 15.1095C92.2584 14.749 92.6288 14.424 92.9685 14.07C92.956 12.3983 92.9752 10.7266 92.9598 9.0558C92.778 8.63367 92.4622 8.26757 92.2335 7.86411C91.9205 8.04436 91.6929 8.4198 91.3034 8.43287C92.1886 7.63427 93.1139 6.87873 93.9942 6.07555ZM129.503 8.16568C130.317 7.4699 131.114 6.75638 131.933 6.06621C132.521 6.69848 133.129 7.313 133.706 7.95461C134.571 7.34476 135.401 6.68914 136.258 6.06621C136.858 6.69381 137.446 7.33168 138.052 7.95461C138.901 7.32701 139.739 6.68634 140.594 6.06715C141.177 6.70222 141.779 7.32141 142.37 7.95087C142.731 7.7258 143.064 7.45589 143.432 7.24016C143.46 7.44936 143.265 7.54462 143.129 7.66042C142.931 7.81545 142.74 7.97796 142.543 8.13206C142.527 9.87102 142.547 11.61 142.533 13.3489C142.872 13.6929 143.219 14.0304 143.572 14.3612C143.758 14.1717 143.95 13.9858 144.132 13.7915C144.186 13.8252 144.296 13.8915 144.351 13.9251C143.458 14.7834 142.537 15.6156 141.621 16.4495C140.975 15.7052 140.297 14.9851 139.667 14.2277C139.82 14.0904 139.969 13.9475 140.116 13.8038C140.118 12.3038 140.116 10.8039 140.116 9.30497C139.628 8.77366 139.142 8.2403 138.639 7.723C138.493 7.86775 138.348 8.01158 138.204 8.15718C138.202 10.0325 138.212 11.9078 138.2 13.7831C138.442 14.0484 138.714 14.2856 138.96 14.5499C138.299 15.1224 137.662 15.722 137.004 16.3001C136.39 15.6697 135.786 15.0305 135.191 14.3827C135.36 14.1791 135.7 14.0316 135.647 13.7215C135.639 12.259 135.654 10.7955 135.639 9.33402C135.229 8.7774 134.77 8.23852 134.295 7.73047C134.157 7.87429 134.016 8.01531 133.874 8.15634C133.878 9.97282 133.864 11.7902 133.881 13.6067C134.082 13.941 134.382 14.2147 134.631 14.5163C133.989 15.1748 133.326 15.8144 132.657 16.4467C132.018 15.7034 131.356 14.9796 130.712 14.2409C130.913 14.0885 131.116 13.9383 131.317 13.786C131.312 12.2515 131.306 10.7162 131.32 9.18179C130.943 8.72603 130.53 8.30016 130.134 7.86028C129.853 8.06388 129.605 8.31977 129.283 8.4636C129.267 8.32071 129.412 8.25253 129.503 8.16568Z" fill="#171A1E"></path><path d="M123.839 8.28615C124.681 7.53341 125.553 6.80962 126.403 6.06528C127.009 6.73771 127.598 7.42507 128.201 8.1003C128.513 7.86122 128.794 7.5773 129.14 7.38025C129.114 7.48765 129.085 7.59878 128.982 7.65949C128.723 7.86962 128.466 8.08069 128.204 8.28522C128.208 10.027 128.197 11.7678 128.21 13.5096C128.551 13.885 128.903 14.253 129.221 14.6489C129.486 14.4912 129.707 14.2753 129.959 14.0998C130.013 14.1278 130.121 14.183 130.175 14.21C129.334 14.9796 128.461 15.7174 127.584 16.4467C127.002 15.7632 126.404 15.0906 125.807 14.4174C125.548 14.6471 125.332 14.9254 125.048 15.1253C125.007 15.0889 124.927 15.0141 124.887 14.9768C125.14 14.7433 125.378 14.4949 125.634 14.2633C125.654 12.6812 125.635 11.0973 125.644 9.51511C125.629 9.2947 125.701 9.03413 125.525 8.85856C125.213 8.48032 124.926 8.08246 124.594 7.72104C124.347 7.91632 124.112 8.12832 123.839 8.28615Z" fill="#171A1E"></path></svg>