<svg xmlns="http://www.w3.org/2000/svg" width="29" height="36" viewBox="0 0 29 36" fill="none"><path d="M0 32.7273V36H29V32.7273H0Z" fill="#171A1E"></path><path fill-rule="evenodd" clip-rule="evenodd" d="M29 31.0909H0V0H29V31.0909ZM16.0872 23.338V8.1955H21.1571C24.939 8.1955 27.1622 10.1042 27.1622 13.5229C27.1622 16.8823 24.9472 18.8504 21.1571 18.8504H20.7797V15.7964H21.0094C22.6502 15.7964 23.5854 14.9566 23.5854 13.5229C23.5854 12.0554 22.6502 11.2494 21.0094 11.2494H19.5984V23.338H16.0872ZM1.80463 23.338L6.68582 8.1955H10.7302L15.6114 23.338H11.9772L11.2635 21.0391H7.3093L8.17069 17.9851H10.3201L8.6547 12.6322L5.34042 23.338H1.80463Z" fill="#171A1E"></path></svg>