<svg xmlns="http://www.w3.org/2000/svg" width="83" height="26" viewBox="0 0 83 26" fill="none"><path d="M18.8569 13.8602L20.305 13.1464V2.29937H19.2101L16.5364 5.6794H16.2362L16.4057 1.87854H27.9975L28.167 5.68277H27.8456L25.2249 2.30273H24.0983V13.1195L25.5534 13.8534V14.2204H18.8569V13.8602ZM29.2937 13.3821V1.36683L28.167 0.935906V0.713712L32.2287 0H32.6737V5.70297L32.7691 5.61207C33.7404 4.82429 34.973 4.38664 36.2516 4.3799C38.0317 4.3799 38.8157 5.33938 38.8157 7.12029V13.3787L39.7658 13.8736V14.217H34.4538V13.8736L35.4074 13.3787V7.10009C35.4074 6.11705 34.9554 5.72653 34.1148 5.72653C33.6062 5.71643 33.1082 5.87129 32.7091 6.16755V13.3989L33.645 13.8938V14.2204H28.333V13.8938L29.2937 13.3821ZM42.6549 9.69235C42.7644 11.6786 43.7004 13.2138 45.9114 13.2138C46.9815 13.2138 47.7409 12.7425 48.4437 12.3822V12.7728C47.4866 13.8871 46.0491 14.5234 44.5374 14.5065C41.108 14.5065 39.3597 12.6886 39.3597 9.54422C39.3597 6.47054 41.2775 4.55497 44.3714 4.55497C47.2853 4.55497 48.7969 5.94199 48.7969 9.59808V9.69235H42.6549ZM42.5984 9.23113L45.6217 9.05607C45.6217 6.59511 45.1803 4.96232 44.2937 4.96232C43.3472 4.96569 42.5984 6.86443 42.5984 9.23113ZM0 19.0312C0 13.8029 3.63081 11.9412 7.67485 11.9412C9.39136 11.9412 11.009 12.2105 11.9167 12.5607L11.9944 16.21H11.6094L9.23596 12.6785C8.75915 12.4967 8.24702 12.4193 7.73136 12.4462C5.58043 12.4462 4.482 14.8163 4.51732 18.6979C4.55617 23.3404 5.40383 25.4546 7.37817 25.4546C7.78081 25.4681 8.18345 25.4041 8.56136 25.2661V20.2903L7.25809 19.5833V19.1591H13.552V19.6035L12.2699 20.2869V25.1954C10.7441 25.7105 9.13353 25.9731 7.51238 25.9663C2.91736 25.9697 0 23.9397 0 19.0312ZM12.9692 16.5904V16.2875L17.1898 15.5771L17.656 15.6141V23.566C17.656 24.5254 18.1399 24.8183 18.9523 24.8183C19.4856 24.8251 19.9906 24.5995 20.3262 24.2023V17.0685L19.1677 16.5871V16.2774L23.3883 15.567L23.8122 15.604V24.7274L24.953 25.1819V25.4714L20.8136 25.9562L20.3897 25.9192V24.7207H20.2732C19.422 25.5118 18.2883 25.9663 17.1015 25.9933C15.0707 25.9933 14.1418 24.852 14.1418 23.1182V17.0685L12.9692 16.5904ZM39.5045 15.5603L39.8541 15.5973V18.5498H39.9495C40.4016 16.4019 41.3976 15.5973 42.6161 15.5973C42.7927 15.5906 42.9693 15.6141 43.1353 15.6714V18.6609C42.8492 18.6037 42.556 18.5801 42.2664 18.5868C41.4753 18.5666 40.6877 18.7181 39.9636 19.0245V24.8453L40.9278 25.3536V25.7542H35.4392V25.357L36.4282 24.8453V16.9002L35.2697 16.5702V16.3009L39.5045 15.5603ZM50.1249 15.8094V12.7054L48.9665 12.3183V12.0725L53.2401 11.3251L53.6463 11.3824V24.714L54.8259 25.1213V25.4647L50.6053 26L50.2768 25.963V24.8655H50.1814C49.4503 25.6027 48.4296 26.0101 47.3665 25.9899C45.0637 25.9899 43.3825 24.3134 43.3825 20.8929C43.3825 17.2806 45.3357 15.503 48.2954 15.503C48.917 15.4727 49.5457 15.5771 50.1249 15.8094ZM50.1249 24.347V16.3649C49.8 16.1023 49.3797 15.9777 48.9559 16.0181C47.8115 16.0552 47.1051 17.7014 47.1051 20.6337C47.1051 23.2697 47.6102 24.7443 49.136 24.6938C49.4998 24.6971 49.8494 24.5726 50.1249 24.347ZM59.4527 15.5603L59.82 15.5973V24.8453L60.7843 25.3536V25.7542H55.2957V25.357L56.2811 24.8453V17.0483L55.1014 16.6039V16.2942L59.4527 15.5603ZM59.8377 13.0589C59.8059 14.0184 58.9689 14.7725 57.9623 14.7557C57.2983 14.7792 56.6731 14.456 56.334 13.914C55.995 13.372 55.995 12.692 56.334 12.1499C56.6731 11.6079 57.2983 11.2847 57.9623 11.3083C58.983 11.2948 59.8236 12.0759 59.8377 13.0488V13.0589ZM72.1641 24.8453V16.9641L71.0056 16.577V16.1966L75.2262 15.4492L75.6501 15.4862V16.6679H75.7666C76.7697 15.8498 78.0447 15.3987 79.3657 15.3953C81.2023 15.3953 82.0146 16.2235 82.0146 18.0785V24.8318L83 25.3671V25.7576H77.5043V25.3604L78.4897 24.8486V18.2434C78.4897 17.2301 78.0235 16.8227 77.1547 16.8227C76.632 16.8093 76.1234 16.9641 75.7066 17.2638V24.8453L76.6743 25.3536V25.7576H71.1822V25.3604L72.1641 24.8453ZM66.1916 19.893V18.57C66.1916 16.5803 65.736 15.9272 64.4433 15.9272C64.2985 15.9306 64.1502 15.9441 64.0054 15.9643L61.7061 18.9336H61.3811V16.1966C62.6244 15.7892 63.9277 15.5737 65.2415 15.5569C68.0565 15.5569 69.6847 16.3009 69.6847 18.5464V24.9867L70.6913 25.2392V25.4916C70.052 25.8047 69.3386 25.9596 68.618 25.9461C67.23 25.9461 66.566 25.5118 66.2623 24.788H66.1634C65.5735 25.5489 64.74 25.9832 63.4261 25.9832C61.7555 25.9832 60.6112 24.9867 60.6112 23.2697C60.6112 21.6033 61.6955 20.701 63.8994 20.3004L66.1916 19.893ZM66.1916 24.347V20.3644L65.4888 20.4182C64.3868 20.5091 63.9877 21.1791 63.9877 22.6637C63.9877 24.273 64.5493 24.6904 65.3157 24.6904C65.6477 24.7207 65.9762 24.5928 66.1916 24.347ZM30.5546 19.893V18.57C30.5546 16.5803 30.099 15.9272 28.8063 15.9272C28.6615 15.9306 28.5131 15.9441 28.3683 15.9643L26.0691 18.9302H25.7477V16.1966C26.9909 15.7892 28.2906 15.5737 29.6045 15.5569C32.4194 15.5569 34.0477 16.3009 34.0477 18.5464V24.9867L35.0543 25.2392V25.4916C34.415 25.8047 33.7015 25.9596 32.981 25.9461C31.593 25.9461 30.929 25.5118 30.6252 24.788H30.5299C29.94 25.5489 29.1065 25.9832 27.7926 25.9832C26.122 25.9832 24.9777 24.9867 24.9777 23.2697C24.9777 21.6033 26.062 20.701 28.2659 20.3004L30.5546 19.893ZM30.5546 24.347V20.3644L29.8517 20.4182C28.7498 20.5091 28.3507 21.1791 28.3507 22.6637C28.3507 24.273 28.9123 24.6904 29.6787 24.6904C30.0107 24.7207 30.3391 24.5928 30.5546 24.347Z" fill="#171A1E"></path></svg>