<svg xmlns="http://www.w3.org/2000/svg" width="88" height="14" viewBox="0 0 88 14" fill="none"><path fill-rule="evenodd" clip-rule="evenodd" d="M12.6243 0.013868C12.2289 0.013868 11.8334 0.013868 11.438 0.013868C11.3941 0.013868 11.3502 -3.306e-08 11.3355 0.0554654C11.3209 0.110931 11.3062 0.15253 11.2769 0.194129C11.233 0.30506 11.1744 0.415994 11.1158 0.526925C11.0719 0.651722 11.028 0.776517 10.984 0.901314C10.9694 0.956779 10.9401 1.02611 10.9254 1.08158C10.8961 1.16478 10.8522 1.23411 10.8229 1.3173C10.8083 1.33117 10.8083 1.34504 10.8083 1.37277C10.779 1.42823 10.735 1.49757 10.7204 1.55303C10.6911 1.62237 10.6765 1.70556 10.6472 1.78876C10.6032 1.89969 10.53 2.01062 10.4861 2.12156C10.4421 2.24635 10.3982 2.37115 10.3543 2.49594C10.3396 2.55141 10.3103 2.62074 10.2957 2.67621C10.2518 2.78714 10.1932 2.89807 10.1346 3.009C10.1053 3.07833 10.0907 3.14767 10.0614 3.217C10.0028 3.35566 9.9442 3.49432 9.88562 3.63299C9.85633 3.68845 9.84168 3.75778 9.81239 3.81325C9.7831 3.88258 9.73916 3.95191 9.70987 4.03511C9.68058 4.10444 9.66594 4.17377 9.63665 4.24311C9.622 4.29857 9.59271 4.35404 9.56342 4.42337C9.53413 4.4927 9.50484 4.54817 9.47555 4.6175C9.44625 4.68683 9.43161 4.75616 9.40232 4.81163C9.37303 4.88096 9.32909 4.95029 9.2998 5.01962C9.27051 5.08895 9.25587 5.15829 9.22658 5.22762C9.21193 5.28308 9.18264 5.33855 9.16799 5.39401C9.1387 5.47721 9.09477 5.56041 9.06548 5.64361C9.03619 5.69907 9.02154 5.7684 8.99225 5.82387C8.96296 5.8932 8.91902 5.96253 8.88973 6.03187C8.86044 6.1012 8.8458 6.17053 8.81651 6.25373C8.80186 6.30919 8.77257 6.37852 8.74328 6.43399C8.71399 6.50332 8.6847 6.57266 8.65541 6.62812C8.62612 6.69745 8.61147 6.78065 8.58218 6.84998C8.53824 6.96091 8.47966 7.07184 8.42108 7.18278C8.37714 7.29371 8.33321 7.40464 8.28927 7.52943C8.27463 7.52943 8.27463 7.52943 8.25998 7.52943C8.23069 7.4601 8.2014 7.3769 8.17211 7.30757C8.14282 7.23824 8.12817 7.18278 8.09888 7.11344C8.06959 7.04411 8.02566 6.97478 7.99637 6.90545C7.96707 6.83612 7.95243 6.76678 7.92314 6.69745C7.89385 6.61425 7.84991 6.53105 7.82062 6.43399C7.79133 6.37852 7.77668 6.30919 7.74739 6.25373C7.7181 6.1844 7.67417 6.11506 7.64488 6.04573C7.61559 5.9764 7.60094 5.90707 7.57165 5.83774C7.54236 5.75454 7.49842 5.67134 7.46913 5.58814C7.43984 5.53268 7.4252 5.46334 7.39591 5.40788C7.35197 5.29695 7.29339 5.18602 7.23481 5.07509C7.17622 4.93642 7.11764 4.79776 7.05906 4.64523C7.00048 4.50657 6.9419 4.35404 6.88332 4.21537C6.83938 4.09057 6.79545 3.96578 6.75151 3.84098C6.75151 3.82712 6.73687 3.81325 6.73687 3.81325C6.70757 3.75778 6.66364 3.70232 6.64899 3.63299C6.6197 3.56366 6.60506 3.48046 6.57577 3.39726C6.56112 3.35566 6.53183 3.30019 6.51718 3.25859C6.48789 3.18926 6.44396 3.11993 6.41467 3.03673C6.38538 2.9674 6.37073 2.89807 6.34144 2.82874C6.31215 2.74554 6.26821 2.66234 6.23892 2.57914C6.20963 2.52368 6.19499 2.45435 6.1657 2.39888C6.1364 2.32955 6.09247 2.26022 6.06318 2.19089C6.03389 2.12156 6.01924 2.05222 5.98995 1.98289C5.97531 1.92743 5.94602 1.87196 5.91672 1.80263C5.88743 1.7333 5.85814 1.67783 5.82885 1.6085C5.79956 1.53917 5.78492 1.45597 5.75563 1.38664C5.71169 1.26184 5.65311 1.13704 5.59453 1.01225C5.56524 0.956782 5.55059 0.887447 5.5213 0.831982C5.49201 0.748784 5.44807 0.665587 5.41878 0.582389C5.38949 0.526924 5.37485 0.45759 5.34556 0.402124C5.31626 0.332792 5.27233 0.263464 5.24304 0.180266C5.22839 0.0970678 5.18446 0.0554654 5.08194 0.0554654C3.42701 0.0554654 1.75744 0.0554654 0.102518 0.0554654H0V0.138664C0 4.64523 0 9.1518 0 13.6584C0 13.7693 2.26962e-07 13.7832 0.131808 13.7832C1.28879 13.7832 2.44578 13.7832 3.60276 13.7832C3.73457 13.7832 3.73457 13.7832 3.73457 13.6445C3.73457 12.4797 3.73457 11.3149 3.73457 10.1502C3.73457 8.43075 3.73457 6.69745 3.73457 4.97802C3.73457 4.93642 3.73457 4.89482 3.74921 4.83936C3.76386 4.83936 3.76386 4.83936 3.7785 4.83936C3.79315 4.88096 3.79315 4.90869 3.80779 4.95029C3.83708 5.01962 3.88102 5.10282 3.91031 5.17215C3.9396 5.24149 3.95425 5.31082 3.98354 5.38015C4.01283 5.46335 4.05676 5.54654 4.08605 5.62974C4.11535 5.68521 4.12999 5.75454 4.15928 5.81C4.18857 5.8932 4.23251 5.9764 4.2618 6.0596C4.29109 6.12893 4.30574 6.1844 4.33503 6.25373C4.36432 6.32306 4.40825 6.37852 4.4229 6.44786C4.45219 6.51719 4.46683 6.60039 4.49612 6.66972C4.51077 6.72518 4.52542 6.76678 4.55471 6.80838C4.584 6.87771 4.62793 6.94705 4.65722 7.01638C4.68651 7.08571 4.70116 7.15504 4.73045 7.22437C4.77439 7.3353 4.83297 7.44623 4.89155 7.5433C4.95013 7.68196 5.00871 7.82062 5.06729 7.97316C5.11123 8.09795 5.15517 8.22275 5.1991 8.33368C5.21375 8.38915 5.24304 8.45848 5.27233 8.51394C5.30162 8.59714 5.34556 8.68034 5.37485 8.76354C5.37485 8.7774 5.38949 8.79127 5.38949 8.819C5.41878 8.88834 5.44807 8.9438 5.47736 9.01313C5.50665 9.08246 5.5213 9.16566 5.55059 9.23499C5.59453 9.34593 5.65311 9.45685 5.71169 9.55392C5.75563 9.63712 5.78492 9.73418 5.82885 9.83125C5.87279 9.95604 5.91672 10.0808 5.96066 10.2056C5.97531 10.2611 6.0046 10.3166 6.03389 10.3859C6.09247 10.5107 6.1364 10.6355 6.19499 10.7603C6.22428 10.8296 6.23892 10.8851 6.26821 10.9544C6.2975 11.0238 6.34144 11.0931 6.37073 11.1624C6.38538 11.204 6.41467 11.2595 6.42931 11.3011C6.4586 11.3704 6.47325 11.4397 6.50254 11.5091C6.53183 11.5784 6.57577 11.6616 6.60506 11.7309C6.63435 11.8003 6.64899 11.8696 6.67828 11.9389C6.70757 12.0221 6.75151 12.1053 6.7808 12.2024C6.81009 12.2579 6.82474 12.3272 6.85403 12.3827C6.88332 12.4659 6.92725 12.5491 6.95655 12.6323C6.98584 12.6877 7.00048 12.757 7.02977 12.8125C7.05906 12.8818 7.103 12.9512 7.13229 13.0205C7.16158 13.076 7.17623 13.1176 7.19087 13.173C7.22016 13.2424 7.23481 13.3117 7.2641 13.3672C7.29339 13.4504 7.35197 13.5336 7.36661 13.6168C7.39591 13.7138 7.46913 13.797 7.5863 13.797C8.05495 13.797 8.5236 13.797 8.99225 13.797C9.02154 13.797 9.06548 13.7693 9.09477 13.7554C9.16799 13.7277 9.1387 13.6584 9.16799 13.6029C9.21193 13.492 9.28516 13.381 9.32909 13.2701C9.37303 13.1453 9.41697 13.0205 9.4609 12.8957C9.47555 12.8402 9.50484 12.7709 9.53413 12.7155C9.56342 12.66 9.59271 12.5907 9.622 12.5352C9.65129 12.4659 9.66594 12.3827 9.69523 12.2995C9.70987 12.244 9.72452 12.2024 9.75381 12.1608C9.7831 12.0915 9.82703 12.0083 9.85633 11.9389C9.88562 11.8696 9.90026 11.8003 9.92955 11.7448C9.95884 11.6755 10.0028 11.6061 10.0321 11.5368C10.0614 11.4675 10.076 11.3981 10.1053 11.3288C10.1199 11.2733 10.1492 11.204 10.1785 11.1485C10.2078 11.0931 10.2371 11.0376 10.2664 10.9683C10.2957 10.899 10.3103 10.8296 10.3396 10.7603C10.3689 10.6632 10.4128 10.58 10.4568 10.483C10.4568 10.4691 10.4714 10.4552 10.4714 10.4414C10.5007 10.372 10.5447 10.3166 10.5593 10.2472C10.5886 10.1779 10.6032 10.0947 10.6325 10.0254C10.6911 9.90058 10.735 9.77578 10.7936 9.63712C10.8229 9.58165 10.8376 9.51232 10.8669 9.44299C10.8961 9.37366 10.9401 9.29046 10.9694 9.22113C10.9987 9.1518 11.0133 9.08246 11.0426 9.01313C11.0719 8.92993 11.1158 8.84674 11.1451 8.76354C11.1744 8.70807 11.1891 8.63874 11.2183 8.58327C11.2623 8.47234 11.3209 8.36141 11.3794 8.25048C11.4234 8.12568 11.4673 8.00089 11.5113 7.87609C11.5259 7.82063 11.5552 7.76516 11.5845 7.69583C11.6138 7.6265 11.6431 7.55716 11.6723 7.48783C11.7016 7.4185 11.7163 7.34917 11.7456 7.27984C11.8042 7.15504 11.8481 7.03025 11.9067 6.90545C11.936 6.84998 11.9506 6.78065 11.9799 6.72518C12.0092 6.64198 12.0531 6.57266 12.0824 6.48946C12.1117 6.42013 12.1264 6.35079 12.1556 6.29533C12.1849 6.22599 12.2289 6.15666 12.2582 6.08733C12.2875 6.018 12.3021 5.94867 12.3314 5.87933C12.39 5.74067 12.4486 5.60201 12.5071 5.46334C12.5071 5.44948 12.5218 5.43561 12.5218 5.43561C12.5511 5.36628 12.595 5.31082 12.6097 5.24149C12.6389 5.17215 12.6536 5.08895 12.6829 5.01962C12.6975 4.97802 12.7268 4.92256 12.7561 4.88096C12.7708 4.88096 12.7708 4.88096 12.7854 4.88096C12.7854 4.92256 12.8 4.97802 12.8 5.01962C12.8 7.88996 12.8 10.7742 12.8 13.6445C12.8 13.7832 12.8293 13.8109 12.9904 13.8109C14.1328 13.8109 15.2751 13.8109 16.4028 13.8109C16.5493 13.8109 16.5493 13.8109 16.5493 13.6722V0.013868H12.6243Z" fill="#171A1E"></path><path fill-rule="evenodd" clip-rule="evenodd" d="M27.5626 7.00251C27.5479 6.90545 27.5626 6.79452 27.5479 6.69745C27.5186 6.57266 27.4893 6.44786 27.4454 6.32306C27.4161 6.226 27.4015 6.12893 27.3868 6.03187C27.3868 6.03187 27.3868 6.018 27.3722 6.018C27.3429 5.94867 27.2989 5.87934 27.2697 5.79614C27.2404 5.72681 27.2257 5.65747 27.1964 5.60201C27.1818 5.56041 27.1378 5.51881 27.1086 5.47721C27.0646 5.40788 27.0207 5.33855 26.9767 5.28308C26.9182 5.19988 26.8742 5.11668 26.8156 5.04735C26.7278 4.93642 26.6106 4.83936 26.5227 4.7423C26.3763 4.58977 26.2005 4.4511 26.0102 4.34017C25.9369 4.29857 25.8491 4.25697 25.7758 4.21537C25.6733 4.15991 25.5708 4.10444 25.4536 4.06285C25.4097 4.03511 25.3511 4.02124 25.3072 4.00738C25.234 3.97964 25.1754 3.93805 25.1021 3.91031C25.0143 3.88258 24.9264 3.86872 24.8532 3.84098C24.7507 3.81325 24.6628 3.77165 24.5603 3.74392C24.3845 3.70232 24.1941 3.66072 24.0184 3.63299C23.8573 3.60525 23.6962 3.57752 23.5497 3.57752C23.1543 3.56366 22.7442 3.56366 22.3488 3.56366C22.1438 3.56366 21.9534 3.54979 21.7484 3.60525C21.5873 3.66072 21.4115 3.64685 21.2358 3.67458C21.104 3.68845 20.9722 3.71618 20.8403 3.73005H20.8257C20.7085 3.75778 20.606 3.79938 20.4889 3.82712C20.401 3.85485 20.2985 3.86871 20.2106 3.89645C20.152 3.91031 20.0788 3.93805 20.0202 3.96578C19.9616 3.99351 19.8884 4.03511 19.8298 4.04898C19.7127 4.09058 19.5808 4.11831 19.449 4.17377C19.3319 4.21537 19.2147 4.28471 19.1122 4.34017C19.0683 4.36791 19.0243 4.38177 18.9804 4.4095C18.9072 4.4511 18.8339 4.50657 18.7607 4.54817C18.6875 4.58977 18.585 4.63137 18.5117 4.67296C18.4239 4.72843 18.336 4.81163 18.2481 4.86709C18.1456 4.95029 18.0284 5.01962 17.9113 5.10282C17.9259 5.10282 17.9259 5.11668 17.9406 5.11668C17.9552 5.15828 17.9699 5.19989 17.9991 5.24149C18.0431 5.32468 18.1017 5.40788 18.1602 5.50495C18.2042 5.58814 18.2481 5.67134 18.2921 5.74067C18.336 5.82387 18.3946 5.90707 18.4531 5.99027C18.4971 6.07347 18.541 6.17053 18.5996 6.25373C18.6582 6.36466 18.7314 6.47559 18.8046 6.57265C18.8632 6.66972 18.9218 6.78065 18.9804 6.87771C19.039 6.98864 19.1122 7.09957 19.1561 7.21051C19.1854 7.27984 19.244 7.25211 19.2733 7.23824C19.3612 7.18277 19.4344 7.09958 19.5223 7.04411C19.698 6.93318 19.8737 6.84998 20.0495 6.75292C20.2252 6.66972 20.401 6.57265 20.5767 6.50332C20.6792 6.46172 20.7964 6.42012 20.9136 6.39239C21.06 6.35079 21.1918 6.3092 21.3383 6.28146C21.4847 6.25373 21.6312 6.22599 21.7776 6.22599C21.968 6.21213 22.1584 6.22599 22.3488 6.22599C22.422 6.22599 22.4806 6.22599 22.5539 6.23986C22.7003 6.26759 22.8321 6.30919 22.9786 6.33693C23.1104 6.35079 23.2129 6.40626 23.3301 6.44786C23.4765 6.50332 23.623 6.58652 23.7401 6.68359C23.8426 6.76678 23.9305 6.86385 24.0184 6.97478C24.0623 7.03025 24.0916 7.09958 24.1355 7.16891C24.1941 7.25211 24.2381 7.36304 24.2381 7.4601C24.2527 7.77903 24.2381 8.09795 24.2381 8.41688C24.2381 8.47235 24.2381 8.51394 24.2381 8.55554C24.2381 8.56941 24.1941 8.58327 24.1795 8.58327C24.1502 8.55554 24.1355 8.52781 24.1063 8.51394C24.033 8.44461 23.9744 8.38915 23.9012 8.33368C23.7987 8.26435 23.6962 8.20888 23.5937 8.13955C23.5058 8.08409 23.4326 8.02862 23.3447 8.00089C23.2422 7.95929 23.1397 7.91769 23.0371 7.87609C22.92 7.82063 22.8028 7.76516 22.671 7.72356C22.5539 7.69583 22.4367 7.68196 22.3195 7.65423C22.3049 7.65423 22.3049 7.65423 22.2902 7.65423C22.1731 7.6265 22.0706 7.5849 21.9534 7.55716C21.8069 7.52943 21.6458 7.52943 21.4994 7.51557C21.06 7.47397 20.6207 7.5017 20.1959 7.55716C20.1081 7.57103 20.0202 7.5849 19.9177 7.61263C19.903 7.61263 19.8884 7.6265 19.8737 7.6265C19.7712 7.65423 19.6834 7.68196 19.5955 7.70969C19.5223 7.73743 19.4344 7.75129 19.3612 7.77903C19.2294 7.83449 19.0975 7.91769 18.9657 7.98702C18.8779 8.02862 18.79 8.05635 18.7168 8.11182C18.5996 8.19502 18.4824 8.27821 18.3799 8.37528C18.2774 8.47234 18.1602 8.58328 18.0724 8.69421C17.9991 8.7774 17.9406 8.87447 17.882 8.95767C17.8088 9.0686 17.7355 9.1934 17.6623 9.31819C17.633 9.37366 17.6184 9.42912 17.6037 9.47072C17.5744 9.55392 17.5598 9.63712 17.5305 9.72032C17.5012 9.81738 17.4573 9.92831 17.428 10.0254C17.3987 10.164 17.384 10.3027 17.3694 10.4552C17.3547 10.58 17.3547 10.7048 17.3694 10.8296C17.384 10.9683 17.3987 11.1208 17.4133 11.2595C17.428 11.3843 17.4573 11.4952 17.4719 11.62C17.4866 11.6893 17.5012 11.7448 17.5305 11.8141C17.5598 11.8835 17.6037 11.9528 17.633 12.0221C17.6623 12.0776 17.6769 12.1469 17.7062 12.1885C17.7502 12.2856 17.8088 12.3688 17.8673 12.452C17.9406 12.5629 18.0284 12.6739 18.1163 12.7848C18.2335 12.9096 18.3653 13.0344 18.4971 13.1453C18.5996 13.2285 18.7021 13.3117 18.8193 13.381C18.8925 13.4365 18.9804 13.4642 19.0683 13.5058C19.1708 13.5613 19.2733 13.6168 19.3758 13.6584C19.4344 13.6861 19.5076 13.7138 19.5808 13.7416C19.6541 13.7693 19.7273 13.797 19.8005 13.8248C19.903 13.8525 20.0056 13.8525 20.0934 13.8941C20.2545 13.9634 20.4156 13.9634 20.5767 13.9773C20.9575 13.9912 21.3383 14.0328 21.7044 13.9496C21.8655 13.9218 22.0266 13.908 22.1877 13.8802C22.2024 13.8802 22.2024 13.8802 22.217 13.8664C22.3049 13.8386 22.3928 13.797 22.4806 13.7693C22.5685 13.7416 22.6564 13.7277 22.7296 13.7C22.8614 13.6584 22.9786 13.589 23.1104 13.5474C23.1543 13.5336 23.2129 13.5058 23.2568 13.4781C23.3593 13.4088 23.4619 13.3394 23.579 13.2701C23.6815 13.2008 23.7841 13.1592 23.8866 13.0898C23.9744 13.0205 24.0477 12.9512 24.1209 12.8818C24.1355 12.868 24.1502 12.8541 24.1648 12.8402C24.1795 12.868 24.1941 12.8818 24.1941 12.9096C24.1941 13.1453 24.1941 13.3672 24.1941 13.6029C24.1941 13.7277 24.2234 13.7554 24.3552 13.7554C25.3804 13.7554 26.3909 13.7554 27.4161 13.7554C27.5333 13.7554 27.5772 13.7138 27.5772 13.6029C27.5772 12.5075 27.5919 11.3981 27.5772 10.3027C27.5919 9.1934 27.6651 8.09795 27.5626 7.00251ZM24.077 11.3565C23.9744 11.4536 23.8426 11.5229 23.7108 11.5923C23.579 11.6477 23.4619 11.7171 23.3154 11.7587C23.125 11.8141 22.92 11.8419 22.7296 11.8696C22.5539 11.8973 22.3928 11.9112 22.217 11.8973C22.0706 11.8973 21.9095 11.8835 21.7776 11.8419C21.5873 11.7864 21.3969 11.7171 21.2358 11.6339C21.0893 11.5507 20.9575 11.4397 20.8696 11.3011C20.8111 11.204 20.7671 11.0931 20.7378 10.9822C20.7085 10.8851 20.6792 10.788 20.7085 10.691C20.7232 10.58 20.7818 10.483 20.8111 10.372C20.855 10.2056 20.9868 10.0947 21.1186 9.98378C21.1918 9.92831 21.2797 9.88671 21.3529 9.84511C21.4115 9.81738 21.4701 9.78965 21.5287 9.74805L21.5433 9.73418C21.6458 9.70645 21.7337 9.69258 21.8362 9.66485C22.1438 9.58165 22.4513 9.59552 22.7589 9.62325C22.9053 9.63712 23.0664 9.63712 23.2129 9.70645C23.2861 9.74805 23.3886 9.74805 23.4619 9.77578C23.5204 9.80351 23.5937 9.83125 23.6523 9.85898C23.6962 9.88671 23.7548 9.91444 23.7987 9.92831C23.9598 10.0115 24.1063 10.1086 24.2088 10.2611C24.2234 10.275 24.2234 10.3027 24.2234 10.3304C24.2234 10.4691 24.2234 10.5939 24.2234 10.7326C24.2234 10.8435 24.2088 10.9406 24.2234 11.0515C24.2381 11.1902 24.1648 11.2733 24.077 11.3565Z" fill="#171A1E"></path><path fill-rule="evenodd" clip-rule="evenodd" d="M60.002 7.00251C59.9874 6.90545 60.002 6.79452 59.9874 6.69745C59.9581 6.57266 59.9288 6.44786 59.8849 6.32306C59.8556 6.226 59.8409 6.12893 59.8263 6.03187C59.8263 6.03187 59.8263 6.018 59.8116 6.018C59.7824 5.94867 59.7384 5.87934 59.7091 5.79614C59.6798 5.72681 59.6652 5.65747 59.6359 5.60201C59.6213 5.56041 59.5773 5.51881 59.548 5.47721C59.5041 5.40788 59.4602 5.33855 59.4162 5.28308C59.3576 5.19988 59.3137 5.11668 59.2551 5.04735C59.1672 4.93642 59.0501 4.83936 58.9622 4.7423C58.8158 4.58977 58.64 4.4511 58.4496 4.34017C58.3764 4.29857 58.2885 4.25697 58.2153 4.21537C58.1128 4.15991 58.0103 4.10444 57.8931 4.06285C57.8492 4.03511 57.7906 4.02124 57.7466 4.00738C57.6734 3.97964 57.6148 3.93805 57.5416 3.91031C57.4537 3.88258 57.3659 3.86872 57.2926 3.84098C57.1901 3.81325 57.1022 3.77165 56.9997 3.74392C56.824 3.70232 56.6336 3.66072 56.4579 3.63299C56.2968 3.60525 56.1357 3.57752 55.9892 3.57752C55.5938 3.56366 55.1837 3.56366 54.7883 3.56366C54.5832 3.56366 54.3929 3.54979 54.1878 3.60525C54.0267 3.66072 53.851 3.64685 53.6752 3.67458C53.5434 3.68845 53.4116 3.71618 53.2798 3.73005H53.2652C53.148 3.75778 53.0455 3.79938 52.9283 3.82712C52.8405 3.85485 52.7379 3.86871 52.6501 3.89645C52.5915 3.91031 52.5183 3.93805 52.4597 3.96578C52.4011 3.99351 52.3279 4.03511 52.2693 4.04898C52.1521 4.09058 52.0203 4.11831 51.9031 4.17377C51.786 4.21537 51.6688 4.28471 51.5663 4.34017C51.5224 4.36791 51.4784 4.38177 51.4345 4.4095C51.3613 4.4511 51.288 4.50657 51.2148 4.54817C51.1416 4.58977 51.0391 4.63137 50.9658 4.67296C50.878 4.72843 50.7901 4.81163 50.7022 4.86709C50.5997 4.95029 50.4826 5.01962 50.3654 5.10282C50.38 5.10282 50.38 5.11668 50.3947 5.11668C50.4093 5.15828 50.424 5.19989 50.4533 5.24149C50.4972 5.32468 50.5558 5.40788 50.6144 5.50495C50.6583 5.58814 50.7022 5.67134 50.7462 5.74067C50.7901 5.82387 50.8487 5.90707 50.9073 5.99027C50.9512 6.07347 50.9951 6.17053 51.0537 6.25373C51.1123 6.36466 51.1855 6.47559 51.2588 6.57265C51.3173 6.66972 51.3759 6.78065 51.4345 6.87771C51.4931 6.98864 51.5663 7.09957 51.6102 7.21051C51.6395 7.27984 51.6981 7.25211 51.7274 7.23824C51.8153 7.18277 51.8885 7.09958 51.9764 7.04411C52.1521 6.93318 52.3279 6.84998 52.5036 6.75292C52.6794 6.66972 52.8551 6.57265 53.0308 6.50332C53.1334 6.46172 53.2505 6.42012 53.3677 6.39239C53.5141 6.35079 53.6459 6.3092 53.7924 6.28146C53.9389 6.25373 54.0853 6.22599 54.2318 6.22599C54.4221 6.21213 54.6125 6.22599 54.8029 6.22599C54.8762 6.22599 54.9347 6.22599 55.008 6.23986C55.1544 6.26759 55.2862 6.30919 55.4327 6.33693C55.5645 6.35079 55.667 6.40626 55.7842 6.44786C55.9306 6.50332 56.0771 6.58652 56.1942 6.68359C56.2968 6.76678 56.3846 6.86385 56.4725 6.97478C56.5164 7.03025 56.5457 7.09958 56.5897 7.16891C56.6482 7.25211 56.6922 7.36304 56.6922 7.4601C56.7068 7.77903 56.6922 8.09795 56.6922 8.41688C56.6922 8.47235 56.6922 8.51394 56.6922 8.55554C56.6922 8.56941 56.6482 8.58327 56.6336 8.58327C56.6043 8.55554 56.5897 8.52781 56.5604 8.51394C56.4871 8.44461 56.4286 8.38915 56.3553 8.33368C56.2528 8.26435 56.1503 8.20888 56.0478 8.13955C55.9599 8.08409 55.8867 8.02862 55.7988 8.00089C55.6963 7.95929 55.5938 7.91769 55.4913 7.87609C55.3741 7.82063 55.2569 7.76516 55.1251 7.72356C55.008 7.69583 54.8908 7.68196 54.7883 7.65423C54.7736 7.65423 54.7736 7.65423 54.759 7.65423C54.6418 7.6265 54.5393 7.5849 54.4221 7.55716C54.2757 7.52943 54.1146 7.52943 53.9681 7.51557C53.5288 7.47397 53.0894 7.5017 52.6647 7.55716C52.5768 7.57103 52.489 7.5849 52.3864 7.61263C52.3718 7.61263 52.3572 7.6265 52.3425 7.6265C52.24 7.65423 52.1521 7.68196 52.0642 7.70969C51.991 7.73743 51.9031 7.75129 51.8299 7.77903C51.6981 7.83449 51.5663 7.91769 51.4345 7.98702C51.3466 8.02862 51.2588 8.05635 51.1855 8.11182C51.0684 8.19502 50.9512 8.27821 50.8487 8.37528C50.7462 8.47234 50.629 8.58328 50.5411 8.69421C50.4679 8.7774 50.4093 8.87447 50.3507 8.95767C50.2775 9.0686 50.2043 9.1934 50.1311 9.31819C50.1018 9.37366 50.0871 9.42912 50.0725 9.47072C50.0432 9.55392 50.0285 9.63712 49.9993 9.72032C49.97 9.81738 49.926 9.92831 49.8967 10.0254C49.8674 10.164 49.8528 10.3027 49.8382 10.4552C49.8235 10.58 49.8235 10.7048 49.8382 10.8296C49.8528 10.9683 49.8674 11.1208 49.8821 11.2595C49.8967 11.3843 49.926 11.4952 49.9407 11.62C49.9553 11.6893 49.97 11.7448 49.9993 11.8141C50.0285 11.8835 50.0725 11.9528 50.1018 12.0221C50.1311 12.0776 50.1457 12.1469 50.175 12.1885C50.2189 12.2856 50.2775 12.3688 50.3361 12.452C50.4093 12.5629 50.4972 12.6739 50.5851 12.7848C50.7022 12.9096 50.834 13.0344 50.9658 13.1453C51.0684 13.2285 51.1709 13.3117 51.288 13.381C51.3613 13.4365 51.4491 13.4642 51.537 13.5058C51.6395 13.5613 51.742 13.6168 51.8446 13.6584C51.9031 13.6861 51.9764 13.7138 52.0496 13.7416C52.1228 13.7693 52.1961 13.797 52.2693 13.8248C52.3718 13.8525 52.4743 13.8525 52.5622 13.8941C52.7233 13.9634 52.8844 13.9634 53.0455 13.9773C53.4263 13.9912 53.807 14.0328 54.1732 13.9496C54.3343 13.9218 54.4954 13.908 54.6565 13.8802C54.6711 13.8802 54.6711 13.8802 54.6858 13.8664C54.7736 13.8386 54.8615 13.797 54.9494 13.7693C55.0373 13.7416 55.1251 13.7277 55.1984 13.7C55.3302 13.6584 55.4473 13.589 55.5791 13.5474C55.6231 13.5336 55.6816 13.5058 55.7256 13.4781C55.8281 13.4088 55.9306 13.3394 56.0478 13.2701C56.1503 13.2008 56.2528 13.1592 56.3553 13.0898C56.4432 13.0205 56.5164 12.9512 56.5897 12.8818C56.6043 12.868 56.619 12.8541 56.6336 12.8402C56.6482 12.868 56.6629 12.8818 56.6629 12.9096C56.6629 13.1453 56.6629 13.3672 56.6629 13.6029C56.6629 13.7277 56.6922 13.7554 56.824 13.7554C57.8492 13.7554 58.8597 13.7554 59.8849 13.7554C60.002 13.7554 60.046 13.7138 60.046 13.6029C60.046 12.5075 60.0606 11.3981 60.046 10.3027C60.0313 9.1934 60.1045 8.09795 60.002 7.00251ZM56.5311 11.3565C56.4286 11.4536 56.2968 11.5229 56.1649 11.5923C56.0331 11.6477 55.916 11.7171 55.7695 11.7587C55.5791 11.8141 55.3741 11.8419 55.1837 11.8696C55.008 11.8973 54.8469 11.9112 54.6711 11.8973C54.5247 11.8973 54.3636 11.8835 54.2318 11.8419C54.0414 11.7864 53.851 11.7171 53.6899 11.6339C53.5434 11.5507 53.4116 11.4397 53.3237 11.3011C53.2652 11.204 53.2212 11.0931 53.1919 10.9822C53.1627 10.8851 53.1334 10.788 53.1626 10.691C53.1773 10.58 53.2359 10.483 53.2652 10.372C53.3091 10.2056 53.4409 10.0947 53.5727 9.98378C53.6459 9.92831 53.7338 9.88671 53.807 9.84511C53.8656 9.81738 53.9242 9.78965 53.9828 9.74805L53.9974 9.73418C54.1 9.70645 54.2025 9.69258 54.2903 9.66485C54.5979 9.58165 54.9054 9.59552 55.213 9.62325C55.3595 9.63712 55.5205 9.63712 55.667 9.70645C55.7402 9.74805 55.8428 9.74805 55.916 9.77578C55.9746 9.80351 56.0478 9.83125 56.1064 9.85898C56.1503 9.88671 56.2089 9.91444 56.2528 9.92831C56.4139 10.0115 56.5604 10.1086 56.6629 10.2611C56.6775 10.275 56.6775 10.3027 56.6775 10.3304C56.6775 10.4691 56.6775 10.5939 56.6775 10.7326C56.6775 10.8435 56.6629 10.9406 56.6775 11.0515C56.6922 11.1902 56.619 11.2733 56.5311 11.3565Z" fill="#171A1E"></path><path fill-rule="evenodd" clip-rule="evenodd" d="M37.829 9.78965C37.785 9.67872 37.7557 9.56779 37.7118 9.47072C37.6532 9.33206 37.6093 9.20726 37.5214 9.08246C37.4335 8.95767 37.3017 8.84673 37.1992 8.72194C36.9942 8.48621 36.7452 8.30595 36.4816 8.15342C36.3351 8.07022 36.174 8.00089 36.0276 7.93156C35.9104 7.88996 35.7933 7.84836 35.6761 7.82062C35.6175 7.79289 35.5443 7.77903 35.4711 7.76516C35.3978 7.73743 35.31 7.69583 35.2367 7.6681C35.1196 7.64036 35.0024 7.6265 34.8852 7.59876C34.8706 7.59876 34.856 7.59876 34.8413 7.59876C34.7241 7.57103 34.6216 7.52943 34.5045 7.5017C34.358 7.47397 34.1969 7.4601 34.0505 7.43237H34.0358C33.8894 7.40463 33.7429 7.36303 33.5818 7.3353C33.4061 7.30757 33.2303 7.2937 33.0546 7.26597H33.0399C32.9081 7.23824 32.791 7.19664 32.6591 7.16891C32.542 7.14117 32.4395 7.12731 32.3223 7.09958C32.3077 7.09958 32.3077 7.09957 32.293 7.08571C32.2344 7.05798 32.1758 7.01638 32.1173 7.00251C32.0148 6.97478 31.8537 6.79452 31.8683 6.68358C31.8829 6.62812 31.9122 6.58652 31.9122 6.53105C31.9415 6.39239 32.0733 6.30919 32.1758 6.23986C32.293 6.15666 32.4541 6.11507 32.5859 6.07347C32.7324 6.03187 32.8935 6.018 33.0399 6.018C33.2596 6.018 33.4939 6.04573 33.7136 6.0596C33.8747 6.07346 34.0212 6.1012 34.1823 6.11506C34.2555 6.12893 34.3287 6.15666 34.4019 6.17053C34.4166 6.17053 34.4312 6.17053 34.4312 6.18439C34.5191 6.21213 34.607 6.25373 34.6949 6.28146C34.7681 6.30919 34.8559 6.32306 34.9438 6.35079C34.9878 6.36466 35.0317 6.39239 35.0903 6.42012C35.1489 6.44786 35.2074 6.47559 35.2514 6.50332C35.3392 6.54492 35.4418 6.58652 35.5296 6.62812C35.6029 6.66972 35.6614 6.72518 35.7347 6.76678C35.8665 6.84998 35.9983 6.93318 36.1155 7.03024C36.218 7.11344 36.2326 7.12731 36.2912 7.00251C36.3351 6.91931 36.3644 6.84998 36.4084 6.78065C36.4523 6.69745 36.5109 6.61425 36.5695 6.53105C36.628 6.44786 36.672 6.36466 36.7159 6.26759C36.7598 6.1844 36.8038 6.1012 36.8477 6.018C36.8917 5.92093 36.9356 5.83773 36.9942 5.74067C37.082 5.60201 37.1699 5.46334 37.2578 5.32468C37.3164 5.24148 37.3603 5.14442 37.4189 5.06122C37.4628 4.99189 37.4775 4.90869 37.5068 4.83936C37.375 4.75616 37.2578 4.70069 37.1553 4.63136C37.0674 4.5759 36.9795 4.5343 36.8917 4.47884C36.8477 4.4511 36.8038 4.43724 36.7598 4.4095C36.672 4.3679 36.5841 4.31244 36.4962 4.27084C36.3937 4.22924 36.2912 4.18764 36.1887 4.14604C36.1447 4.13217 36.1008 4.10444 36.0569 4.09057C35.969 4.06284 35.8958 4.02125 35.8079 3.99351C35.7347 3.96578 35.6614 3.95191 35.6029 3.93804C35.5296 3.91031 35.4418 3.86871 35.3685 3.84098C35.2514 3.81325 35.1342 3.79938 35.017 3.77165C35.0024 3.77165 35.0024 3.77165 34.9878 3.77165C34.8852 3.74392 34.7827 3.70232 34.6656 3.67458C34.563 3.66072 34.4752 3.64685 34.3727 3.61912C34.2116 3.57752 34.0358 3.56365 33.8601 3.56365C33.699 3.54979 33.5232 3.54979 33.3621 3.54979C32.9521 3.56365 32.5273 3.52205 32.1173 3.60525C31.9708 3.63298 31.8097 3.64685 31.6486 3.67458H31.634C31.5315 3.70232 31.4289 3.74392 31.3264 3.77165C31.2385 3.79938 31.1507 3.79938 31.0628 3.84098C30.9456 3.88258 30.8285 3.93805 30.726 3.99351C30.6234 4.03511 30.5209 4.07671 30.4184 4.11831C30.3745 4.13218 30.3305 4.15991 30.2866 4.18764C30.2134 4.22924 30.1548 4.28471 30.0816 4.3263C29.979 4.39564 29.8765 4.4511 29.774 4.5343C29.6715 4.60363 29.5836 4.68683 29.4957 4.77003C29.4372 4.82549 29.3639 4.89483 29.3054 4.96416C29.2321 5.06122 29.1589 5.15828 29.1003 5.25535C29.0271 5.36628 28.9539 5.49108 28.8953 5.60201C28.866 5.65747 28.8367 5.72681 28.8221 5.78227C28.7928 5.86547 28.7488 5.94867 28.7195 6.04573C28.7049 6.07346 28.7195 6.08733 28.7049 6.11506C28.6756 6.25373 28.617 6.39239 28.6024 6.53105C28.5877 6.68358 28.5877 6.84998 28.6024 7.00251C28.617 7.18277 28.6463 7.3769 28.661 7.55716C28.661 7.57103 28.661 7.57103 28.6756 7.5849C28.7049 7.68196 28.7488 7.79289 28.7781 7.88996C28.7928 7.95929 28.8221 8.02862 28.8514 8.08409C28.8953 8.16728 28.9539 8.25048 29.0125 8.33368C29.071 8.43074 29.1296 8.54168 29.2028 8.62487C29.32 8.74967 29.4518 8.87447 29.5836 8.9854C29.6861 9.0686 29.7887 9.15179 29.8912 9.22113C29.9644 9.27659 30.0669 9.30432 30.1548 9.34592C30.2573 9.40139 30.3598 9.45685 30.4623 9.49845C30.5209 9.52619 30.5942 9.54005 30.6674 9.56778C30.7406 9.59552 30.7992 9.63712 30.8578 9.65098C30.9456 9.67872 31.0335 9.69258 31.1214 9.72031C31.2532 9.74805 31.385 9.78965 31.5315 9.83124C31.5461 9.83124 31.5607 9.83124 31.5754 9.83124C31.6926 9.85898 31.7951 9.91444 31.9122 9.92831C32.1026 9.95604 32.293 9.98377 32.4688 10.0392C32.5859 10.067 32.7031 10.0531 32.8349 10.0947C32.9374 10.1363 33.0546 10.1224 33.1717 10.1502C33.3768 10.1918 33.5965 10.2056 33.8015 10.2611C33.9186 10.2888 34.0358 10.3027 34.153 10.3304C34.1676 10.3304 34.1676 10.3304 34.1823 10.3304C34.2848 10.3859 34.3727 10.4275 34.4752 10.483C34.607 10.5384 34.6802 10.6355 34.7095 10.7603C34.7388 10.899 34.6802 11.0376 34.5777 11.1624C34.4752 11.2733 34.3727 11.3427 34.2262 11.3843C34.0944 11.4259 33.9772 11.4675 33.8454 11.4813C33.6843 11.5091 33.5232 11.4675 33.3621 11.5229C33.3328 11.5368 33.2743 11.5229 33.245 11.5229C33.201 11.5091 33.1424 11.4952 33.0985 11.4952C32.8642 11.4675 32.6299 11.4536 32.3955 11.4259C32.3809 11.4259 32.3809 11.4259 32.3662 11.412C32.2491 11.3843 32.1319 11.3427 32.0148 11.3149C31.9269 11.2872 31.839 11.2733 31.7511 11.2456C31.6926 11.2317 31.634 11.204 31.5754 11.1902C31.5022 11.1624 31.4289 11.1208 31.3557 11.0931C31.2825 11.0654 31.2093 11.0515 31.136 11.0238C31.0042 10.9544 30.8724 10.8851 30.726 10.8158C30.6234 10.7603 30.5063 10.7048 30.4038 10.6494C30.2573 10.58 30.1109 10.5107 29.979 10.4136C29.8619 10.3304 29.7447 10.2334 29.6422 10.1502C29.1736 10.899 28.7195 11.6616 28.2509 12.4243C28.2802 12.452 28.3095 12.4659 28.3388 12.4936C28.4706 12.6045 28.6024 12.7016 28.7488 12.7848C28.8806 12.8541 28.9978 12.965 29.1296 13.0344C29.2614 13.1037 29.3932 13.1592 29.5397 13.2146C29.5836 13.2285 29.6276 13.2562 29.6715 13.2701C29.7447 13.2978 29.8326 13.3394 29.9058 13.3672C29.9205 13.381 29.9351 13.381 29.9644 13.381C30.0376 13.4088 30.0962 13.4504 30.1694 13.4642C30.2427 13.492 30.3305 13.5058 30.4184 13.5336C30.5649 13.5752 30.6967 13.6445 30.8431 13.6861C30.9603 13.7138 31.0774 13.7277 31.1946 13.7554C31.2093 13.7554 31.2093 13.7554 31.2239 13.7554C31.3557 13.7832 31.4729 13.8248 31.6047 13.8525C31.7072 13.8802 31.8244 13.8664 31.9269 13.8941C32.1026 13.9357 32.293 13.9634 32.4688 13.9496C33.0106 13.9357 33.5672 14.005 34.109 13.908C34.2116 13.8941 34.3141 13.908 34.4166 13.8941C34.5777 13.8664 34.7241 13.8248 34.8852 13.797C35.0024 13.7693 35.1049 13.7554 35.2221 13.7277C35.2953 13.7138 35.3539 13.6861 35.4271 13.6722C35.5003 13.6445 35.5882 13.6029 35.6614 13.5752C35.7347 13.5474 35.8079 13.5336 35.8665 13.5058C35.9983 13.4365 36.1301 13.3672 36.2619 13.2978C36.4084 13.2146 36.5548 13.1314 36.7013 13.0344C36.8184 12.9512 36.9356 12.8541 37.0528 12.7432C37.1553 12.6461 37.2578 12.5491 37.3457 12.4381C37.4335 12.3272 37.5068 12.1885 37.58 12.0637C37.6532 11.9251 37.7411 11.7864 37.7997 11.6339C37.8582 11.5091 37.8875 11.3565 37.9168 11.2317C37.9461 11.0792 37.9608 10.9128 37.9754 10.7464C37.9754 10.6494 37.9315 10.5523 37.9315 10.4552C37.9461 10.2472 37.9315 10.0115 37.829 9.78965Z" fill="#171A1E"></path><path fill-rule="evenodd" clip-rule="evenodd" d="M48.9741 6.018C48.9594 5.8932 48.9301 5.76841 48.9155 5.65747V5.64361C48.8862 5.54654 48.8423 5.46335 48.813 5.36628C48.7837 5.29695 48.769 5.22762 48.7398 5.17215C48.6958 5.07509 48.6372 4.99189 48.5787 4.90869C48.5054 4.81162 48.4468 4.7007 48.359 4.6175C48.2857 4.52043 48.1979 4.43723 48.11 4.3679C48.0368 4.29857 47.9635 4.24311 47.8903 4.18764C47.8171 4.13218 47.7292 4.09058 47.656 4.04898C47.5388 3.97965 47.407 3.92418 47.2899 3.86871C47.2166 3.84098 47.1288 3.82711 47.0555 3.79938C46.9384 3.74391 46.8212 3.70232 46.6748 3.70232C46.6601 3.70232 46.6455 3.70232 46.6308 3.70232C46.4844 3.67459 46.3379 3.60525 46.1915 3.60525C45.7228 3.60525 45.2395 3.53592 44.7709 3.64685C44.6683 3.67459 44.5512 3.66072 44.434 3.68845C44.2876 3.73005 44.1265 3.74391 43.98 3.79938C43.8775 3.84098 43.7603 3.86871 43.6432 3.91031C43.526 3.95191 43.4235 3.99351 43.3063 4.03511C43.2624 4.04898 43.2038 4.07671 43.1599 4.10444C43.0866 4.14604 43.0134 4.20151 42.9402 4.24311C42.823 4.31244 42.6912 4.38177 42.5887 4.4511C42.5155 4.50657 42.4422 4.56203 42.3837 4.6175C42.2812 4.7007 42.1786 4.78389 42.0615 4.86709C42.0322 4.89482 42.0029 4.92255 41.9443 4.97802V0.0138672H38.7077C38.5466 0.0138672 38.5466 0.013868 38.5466 0.166398V12.2717C38.5466 12.7154 38.5466 13.1592 38.5466 13.6029C38.5466 13.7 38.5905 13.7416 38.693 13.7416C39.7182 13.7416 40.7434 13.7416 41.7686 13.7416C41.8857 13.7416 41.9297 13.7 41.9297 13.589C41.9297 11.5368 41.9297 9.47072 41.9297 7.4185C41.9297 7.3769 41.9297 7.34917 41.9297 7.30757C41.9297 7.2937 41.9443 7.26597 41.959 7.25211C42.0615 7.14118 42.164 7.03024 42.2665 6.94704C42.3837 6.84998 42.5008 6.78065 42.6326 6.71131C42.7059 6.66972 42.7791 6.62812 42.8523 6.58652C42.9109 6.55879 42.9841 6.51719 43.0574 6.50332C43.1452 6.47559 43.2331 6.44785 43.3356 6.43399C43.4967 6.40625 43.6725 6.35079 43.8336 6.35079C43.9947 6.33693 44.1704 6.37852 44.3315 6.39239C44.4926 6.39239 44.6391 6.44786 44.7855 6.48946C44.9173 6.53106 45.0345 6.58652 45.137 6.66972C45.2249 6.73905 45.3274 6.82225 45.386 6.90545C45.4299 6.98865 45.5031 7.07184 45.5324 7.18277C45.5617 7.30757 45.6349 7.43237 45.6349 7.57103C45.6349 7.70969 45.6349 7.84836 45.6349 7.98702C45.6349 9.85898 45.6349 11.7171 45.6349 13.589C45.6349 13.7138 45.6789 13.7554 45.8107 13.7554H48.8423C48.8569 13.7554 48.8862 13.7554 48.9009 13.7554C48.9741 13.7416 49.018 13.7138 49.018 13.6306C49.018 12.3549 49.0327 11.0931 49.018 9.83124C49.0034 8.54167 49.0912 7.27984 48.9741 6.018Z" fill="#171A1E"></path><path fill-rule="evenodd" clip-rule="evenodd" d="M72.2455 7.6681C72.2163 7.52943 72.2016 7.39077 72.1723 7.25211V7.23824C72.143 7.12731 72.0991 7.03024 72.0698 6.91931C72.0405 6.83611 72.0259 6.73905 71.9966 6.64198C71.9819 6.58652 71.9673 6.54492 71.938 6.50332C71.9087 6.43399 71.8941 6.37852 71.8648 6.30919C71.8355 6.25373 71.8062 6.19826 71.7769 6.12893C71.7183 6.018 71.6744 5.92093 71.6304 5.81C71.5865 5.74067 71.5426 5.67134 71.4986 5.58814C71.4547 5.51881 71.4108 5.43561 71.3522 5.35241C71.279 5.25535 71.1618 5.15828 71.1032 5.04735C71.0153 4.89482 70.8835 4.79776 70.7664 4.68683C70.6492 4.5759 70.532 4.47883 70.4002 4.3679C70.3417 4.3263 70.2831 4.28471 70.2245 4.25697C70.1513 4.21537 70.078 4.15991 69.9902 4.11831C69.9023 4.07671 69.8291 4.02124 69.7412 3.97965C69.6387 3.93805 69.5362 3.89645 69.4336 3.85485C69.3165 3.79938 69.1993 3.74392 69.0675 3.70232C68.9211 3.66072 68.7892 3.61912 68.6428 3.59138C68.511 3.56365 68.3645 3.53592 68.2327 3.53592C67.9837 3.52205 67.7201 3.52205 67.4712 3.53592C67.2515 3.54979 67.0318 3.57752 66.8121 3.59138C66.7975 3.59138 66.7828 3.59139 66.7682 3.60525C66.6657 3.63298 66.5631 3.67459 66.4606 3.70232C66.3728 3.73005 66.2849 3.74392 66.2117 3.77165C66.1677 3.78552 66.1238 3.81325 66.0652 3.84098C66.0066 3.86871 65.948 3.89645 65.9041 3.92418C65.8162 3.96578 65.7137 3.99351 65.6258 4.04898C65.4794 4.14604 65.3183 4.25697 65.1865 4.3679C65.0547 4.47883 64.9229 4.60363 64.8057 4.71456C64.7325 4.78389 64.6739 4.83936 64.6153 4.90869C64.6007 4.90869 64.6007 4.89483 64.586 4.89483V0H61.2469V0.083199C61.2469 4.58976 61.2469 9.09633 61.2469 13.6029C61.2469 13.7138 61.2469 13.7277 61.3787 13.7277C62.4039 13.7277 63.4437 13.7277 64.4689 13.7277C64.586 13.7277 64.6007 13.7138 64.6007 13.6029C64.6007 13.3117 64.6007 13.0066 64.6007 12.7154C64.6007 12.6739 64.6007 12.6461 64.6153 12.5907C64.6593 12.6323 64.6885 12.66 64.7178 12.6877C64.8204 12.7848 64.9229 12.8957 65.04 12.9928C65.1425 13.0898 65.2451 13.173 65.3622 13.2562C65.4355 13.3117 65.5233 13.3672 65.6112 13.4226C65.6991 13.4781 65.8016 13.5336 65.9041 13.5752C65.992 13.6168 66.0799 13.6584 66.1824 13.7C66.2556 13.7277 66.3435 13.7416 66.4313 13.7693C66.5485 13.8248 66.6657 13.8664 66.7975 13.8664C66.8121 13.8664 66.8268 13.8664 66.8414 13.8802C66.9732 13.9634 67.1343 13.9496 67.2808 13.9634C67.7055 13.9773 68.1156 14.005 68.5403 13.9218C68.6574 13.8941 68.7892 13.8802 68.9211 13.8664H68.9357C69.0382 13.8386 69.1261 13.797 69.2286 13.7693C69.3018 13.7416 69.3751 13.7277 69.4483 13.7C69.5215 13.6722 69.6094 13.6306 69.6826 13.6029C69.7851 13.5613 69.873 13.5058 69.9755 13.4504C70.0634 13.3949 70.1513 13.3394 70.2391 13.284C70.3417 13.2146 70.4588 13.173 70.5467 13.0898C70.7664 12.868 71.0446 12.6877 71.2057 12.4104C71.2936 12.2717 71.4254 12.1469 71.5279 12.0083C71.6158 11.8835 71.689 11.7448 71.7623 11.62C71.8208 11.4952 71.8794 11.3704 71.938 11.2317C71.9819 11.1208 72.0259 11.0238 72.0552 10.9128C72.0991 10.788 72.143 10.6771 72.1723 10.5523C72.2163 10.372 72.2602 10.1918 72.2895 10.0254C72.3188 9.84511 72.3334 9.66485 72.3481 9.48459C72.3481 9.42912 72.3481 9.35979 72.3481 9.30433C72.3627 9.13793 72.3188 8.97153 72.392 8.819C72.4213 8.76354 72.3627 8.68034 72.3627 8.61101C72.2895 8.27821 72.3041 7.97316 72.2455 7.6681ZM68.8918 9.08246C68.8918 9.19339 68.8625 9.30432 68.8332 9.42912C68.8039 9.55392 68.7746 9.67872 68.716 9.80351C68.6574 9.92831 68.5842 10.0531 68.4963 10.1779C68.4231 10.2888 68.3499 10.4136 68.2474 10.5246C68.1595 10.6216 68.057 10.691 67.9545 10.7742C67.8519 10.8574 67.7348 10.9267 67.6176 10.9822C67.559 11.0099 67.4712 11.0238 67.3979 11.0515C67.2954 11.0792 67.2076 11.1208 67.105 11.1485C67.0904 11.1485 67.0611 11.1624 67.0464 11.1624C66.9 11.1624 66.7389 11.1624 66.5924 11.1624C66.446 11.1624 66.2995 11.1763 66.1531 11.1624C66.0359 11.1485 65.9334 11.107 65.8309 11.0654C65.7577 11.0376 65.6844 11.0238 65.6258 11.0099C65.4794 10.9544 65.3329 10.9128 65.2011 10.8158C65.1133 10.7464 64.9961 10.691 64.9082 10.6216C64.7911 10.5384 64.7032 10.4275 64.6007 10.3304C64.586 10.3166 64.586 10.275 64.586 10.2472C64.586 9.29046 64.586 8.33368 64.586 7.36304C64.586 7.27984 64.6446 7.19664 64.7032 7.14117C64.8204 7.03024 64.9668 6.91931 65.0986 6.82225C65.2158 6.75292 65.3476 6.69745 65.4794 6.64198C65.5966 6.58652 65.7137 6.53106 65.8455 6.48946C65.9188 6.46172 65.992 6.44785 66.0506 6.43399C66.2556 6.40625 66.4753 6.37852 66.6803 6.37852C66.8268 6.37852 66.9732 6.40625 67.1197 6.43399C67.2368 6.46172 67.3686 6.48946 67.4712 6.54492C67.6469 6.62812 67.8373 6.69745 67.9691 6.83612C68.0863 6.94705 68.2181 7.04411 68.3206 7.15504C68.3792 7.22437 68.4231 7.30757 68.4817 7.3769C68.5256 7.4601 68.5842 7.52943 68.6135 7.61263C68.6428 7.68196 68.6721 7.75129 68.7014 7.82062C68.7307 7.90382 68.76 7.98702 68.8039 8.07022C68.8039 8.08409 68.8185 8.09795 68.8185 8.09795C68.9064 8.41688 68.9064 8.74967 68.8918 9.08246Z" fill="#171A1E"></path><path fill-rule="evenodd" clip-rule="evenodd" d="M87.9454 8.25048C87.9307 8.15342 87.9454 8.05636 87.9307 7.94543C87.9014 7.80676 87.8575 7.68196 87.8282 7.5433C87.7989 7.43237 87.7843 7.32144 87.755 7.21051V7.19664C87.6964 7.05798 87.6525 6.93318 87.5939 6.79452C87.5499 6.68359 87.506 6.57266 87.4767 6.46172C87.4621 6.40626 87.4328 6.35079 87.4035 6.30919C87.3303 6.1844 87.2717 6.0596 87.1985 5.9348C87.1692 5.89321 87.1399 5.85161 87.0959 5.79614C87.0374 5.71294 86.9788 5.62974 86.9056 5.54654C86.8323 5.44948 86.7737 5.35241 86.6859 5.25535C86.6126 5.15829 86.5248 5.07509 86.4369 5.00576C86.3051 4.88096 86.1879 4.77003 86.0415 4.6591C85.8657 4.52043 85.69 4.39564 85.4996 4.2847C85.3239 4.18764 85.1481 4.09058 84.9724 4.00738C84.8552 3.95191 84.738 3.92418 84.6209 3.88258C84.5623 3.85485 84.4891 3.84098 84.4305 3.82712C84.3573 3.79938 84.2694 3.75778 84.1962 3.73005C84.0497 3.68845 83.8886 3.64685 83.7275 3.61912C83.5664 3.59139 83.4053 3.56366 83.2589 3.56366C82.7463 3.56366 82.2337 3.50819 81.7211 3.60525C81.5746 3.63299 81.4135 3.64685 81.2524 3.67459C81.2524 3.67459 81.2524 3.67459 81.2378 3.67459C81.106 3.70232 80.9742 3.74392 80.8424 3.78552C80.8277 3.78552 80.8277 3.78552 80.8131 3.78552C80.7252 3.81325 80.6227 3.85485 80.5348 3.88258C80.4762 3.91031 80.403 3.92418 80.3444 3.95191C80.2419 3.99351 80.154 4.04898 80.0662 4.09058C79.9197 4.15991 79.7586 4.22924 79.6268 4.31244C79.4657 4.4095 79.3046 4.4927 79.1582 4.60363C79.0117 4.71456 78.8799 4.8255 78.7481 4.95029C78.6602 5.03349 78.5723 5.11669 78.4991 5.21375C78.3966 5.32468 78.2648 5.42175 78.1916 5.57428C78.1476 5.67134 78.0451 5.74067 77.9865 5.83774C77.9279 5.90707 77.8987 5.99027 77.8547 6.0596C77.7815 6.1844 77.7083 6.29533 77.6497 6.42013C77.6204 6.47559 77.6058 6.53106 77.5765 6.60039C77.5472 6.66972 77.5179 6.75292 77.4739 6.82225C77.4593 6.83612 77.4593 6.86385 77.4446 6.87771C77.4154 6.94705 77.3861 7.01638 77.3568 7.08571C77.3275 7.18277 77.3128 7.27984 77.2836 7.36304C77.2543 7.4601 77.2103 7.55717 77.181 7.6681C77.1517 7.77903 77.1517 7.88996 77.1225 7.98702C77.0785 8.19502 77.0639 8.40301 77.0639 8.61101C77.0639 8.819 77.0932 9.027 77.1078 9.22113C77.1225 9.44299 77.1517 9.66485 77.181 9.88672C77.181 9.90058 77.181 9.90058 77.181 9.91445C77.2103 10.0392 77.2543 10.1502 77.2836 10.275C77.3128 10.3582 77.3275 10.4414 77.3421 10.5246C77.3568 10.58 77.3714 10.6355 77.4007 10.691C77.43 10.7742 77.4739 10.8435 77.5032 10.9267C77.5325 10.9822 77.5472 11.0515 77.5765 11.107C77.6204 11.1902 77.679 11.2872 77.7229 11.3704C77.7961 11.4952 77.8547 11.6061 77.9426 11.7309C78.0305 11.8557 78.1476 11.9667 78.2355 12.0915C78.3527 12.2717 78.5284 12.4104 78.6895 12.5629C78.792 12.6461 78.8945 12.7432 78.9971 12.8264C79.041 12.868 79.0849 12.9096 79.1289 12.9373C79.2607 13.0205 79.4071 13.0898 79.5389 13.173C79.6708 13.2562 79.8026 13.3256 79.949 13.381C79.9929 13.3949 80.0369 13.4226 80.0808 13.4365C80.1394 13.4642 80.198 13.5058 80.2712 13.5336C80.3444 13.5613 80.4177 13.5752 80.4909 13.6029C80.5934 13.6306 80.6959 13.6722 80.7984 13.7138C80.8863 13.7416 80.9595 13.7554 81.0474 13.7832C81.1499 13.8109 81.2524 13.8525 81.3696 13.8802C81.4575 13.8941 81.56 13.908 81.6479 13.9218C81.809 13.9634 81.9847 13.9773 82.1458 13.9773C82.6584 13.9634 83.171 14.0328 83.6836 13.9357C83.9033 13.8941 84.1083 13.8941 84.328 13.8664C84.3426 13.8664 84.3573 13.8664 84.3719 13.8525C84.5037 13.8248 84.6355 13.7832 84.7673 13.7554C84.8698 13.7277 84.9724 13.7138 85.0749 13.6861C85.1481 13.6722 85.2213 13.6445 85.2799 13.6306C85.3824 13.6029 85.4703 13.5613 85.5728 13.5336C85.6314 13.5058 85.7046 13.492 85.7632 13.4642C85.8364 13.4365 85.895 13.3949 85.9682 13.3672C86.0268 13.3394 86.1001 13.3256 86.1586 13.2978C86.2612 13.2562 86.349 13.2008 86.4369 13.1592C86.4808 13.1314 86.5248 13.1176 86.5687 13.0898C86.6566 13.0344 86.7298 12.9373 86.8323 12.8957C86.9641 12.8402 87.052 12.7293 87.1545 12.6323C87.1252 12.6184 87.1106 12.6184 87.0959 12.6045C87.0227 12.4936 86.9348 12.3688 86.8616 12.2579C86.803 12.1608 86.7445 12.0637 86.6712 11.9667C86.5834 11.8419 86.4808 11.7309 86.393 11.6061C86.3344 11.5091 86.2758 11.412 86.2172 11.3288C86.1293 11.1902 86.0268 11.0654 85.9243 10.9406C85.8657 10.8574 85.8072 10.7742 85.7486 10.691C85.6753 10.58 85.6753 10.58 85.5728 10.6632C85.5289 10.7048 85.4703 10.7326 85.4264 10.7742C85.3531 10.8158 85.2653 10.8574 85.192 10.899C85.0895 10.9544 85.0017 10.996 84.8991 11.0515C84.8406 11.0792 84.7673 11.0931 84.7087 11.1208C84.5916 11.1624 84.4598 11.2318 84.3426 11.2595C84.2255 11.2872 84.1083 11.3011 83.9911 11.3288C83.9765 11.3288 83.9765 11.3288 83.9618 11.3288C83.8007 11.3981 83.625 11.412 83.4492 11.4259C83.1417 11.4397 82.8341 11.4813 82.5266 11.3843C82.4241 11.3565 82.3216 11.3704 82.2337 11.3288C82.1165 11.2872 81.9994 11.2733 81.8822 11.2179C81.7943 11.1763 81.6918 11.1486 81.6039 11.107C81.4428 11.0376 81.311 10.9544 81.1792 10.8296C81.1206 10.7742 81.0621 10.7326 81.0181 10.6771C81.0035 10.6632 80.9888 10.6355 80.9742 10.6216C80.8717 10.5107 80.7691 10.3998 80.7106 10.2611C80.6959 10.2195 80.652 10.164 80.6373 10.1224C80.5934 10.0392 80.5641 9.94218 80.5202 9.84511C80.5934 9.84511 80.6373 9.84511 80.6813 9.84511C83.0685 9.84511 85.441 9.84511 87.8282 9.84511C87.96 9.84511 87.9747 9.84511 87.9747 9.72032C87.9747 9.20726 88.0479 8.73581 87.9454 8.25048ZM80.4909 7.64036C80.5055 7.5849 80.5348 7.52943 80.5495 7.47397C80.5641 7.40463 80.5934 7.34917 80.608 7.27984C80.652 7.09958 80.7545 6.96091 80.8863 6.82225C80.9595 6.75292 81.0035 6.65585 81.0913 6.60039C81.1792 6.51719 81.2964 6.46173 81.3989 6.40626C81.4868 6.35079 81.5893 6.29533 81.6918 6.25373C81.7504 6.226 81.8236 6.19826 81.8968 6.19826C82.0872 6.17053 82.2776 6.1428 82.4827 6.12893C82.6584 6.11507 82.8488 6.11507 83.0245 6.12893C83.1563 6.1428 83.3028 6.15666 83.4346 6.1844C83.5518 6.21213 83.6689 6.25373 83.7861 6.29533C83.8593 6.32306 83.9325 6.36466 83.9911 6.40626C84.1229 6.48946 84.2547 6.57266 84.3719 6.68359C84.4598 6.76678 84.5184 6.87772 84.5769 6.97478C84.6355 7.05798 84.6941 7.14118 84.738 7.23824C84.782 7.36304 84.7966 7.5017 84.8259 7.65423H80.4909V7.64036Z" fill="#171A1E"></path><path fill-rule="evenodd" clip-rule="evenodd" d="M73.0803 13.6168C73.0803 13.7554 73.0803 13.7554 73.2268 13.7554C74.2373 13.7554 75.2625 13.7554 76.273 13.7554C76.4195 13.7554 76.4195 13.7554 76.4195 13.6168V0.0277344H73.0803V13.6168Z" fill="#171A1E"></path></svg>