<svg xmlns="http://www.w3.org/2000/svg" width="80" height="32" viewBox="0 0 80 32" fill="none"><path d="M6.2 6.7C5.8 6.5 5.4 6.4 4.7 6.3C4.4 6.3 4.2 6.3 3.9 6.3C3.8 6.3 3.8 6.3 3.8 6.4V10.5C3.8 11.7 3.9 11.9 4.4 12.2C4.9 12.4 5.3 12.4 5.7 12.4C6.5 12.4 7.8 12 7.8 10.2C7.9 9.1 7.5 7.7 6.2 6.7ZM3.9 5.4C3.9 5.5 4 5.6 4 5.6C4.2 5.6 4.4 5.7 4.8 5.7C5.4 5.7 5.8 5.6 6.1 5.4C6.6 5 6.8 4.4 6.8 3.6C6.8 2.4 6.1 0.9 4.6 0.9C4.4 0.9 4.2 0.9 4 0.9C3.9 0.8 3.9 0.9 3.9 1V5.4ZM1.8 5.1C1.8 2.4 1.8 2 1.8 1.4C1.8 0.8 1.6 0.5 1 0.4C0.9 0.4 0.6 0.3 0.3 0.3C0.1 0.3 0 0.3 0 0.2C0 0.1 0.1 0 0.4 0C1.3 0 2.4 0.1 2.8 0.1C3.6 0.1 4.3 0 4.9 0C8.1 0 8.6 1.7 8.6 2.6C8.6 4 7.8 4.9 6.8 5.7C8.3 6.2 10 7.4 10 9.4C10 11.3 8.5 13.2 5.3 13.2C5.1 13.2 4.6 13.2 4.1 13.1C3.6 13.1 3 13 2.8 13C2.6 13 2.2 13 1.8 13C1.4 13 0.9 13 0.6 13C0.4 13 0.2 12.9 0.2 12.8C0.2 12.7 0.3 12.7 0.5 12.7C0.7 12.7 0.9 12.7 1.1 12.6C1.5 12.5 1.5 12.1 1.6 11.6C1.7 10.9 1.7 9.5 1.7 7.9L1.8 5.1ZM12.4 6.3C12.4 4.1 12.4 3.6 12.4 3.2C12.4 2.7 12.2 2.5 11.7 2.4C11.6 2.4 11.3 2.3 11.1 2.3C10.9 2.3 10.8 2.2 10.8 2.1C10.9 2 11 2 11.2 2C12 2 13.1 2 13.5 2C13.9 2 14.9 2 15.5 2C15.7 2 15.8 2 15.8 2.1C15.8 2.2 15.7 2.3 15.6 2.3C15.4 2.3 15.3 2.3 15.1 2.4C14.7 2.5 14.6 2.7 14.5 3.2C14.5 3.7 14.5 4.1 14.5 6.3V8.4C14.5 10.6 14.9 11.4 15.7 12C16.4 12.5 17.1 12.6 17.6 12.6C18.3 12.6 19.1 12.4 19.7 11.8C20.6 11 20.6 9.7 20.6 8.2V6.3C20.6 4.1 20.6 3.6 20.6 3.2C20.6 2.7 20.4 2.5 20 2.4C19.9 2.4 19.6 2.3 19.4 2.3C19.2 2.3 19.1 2.2 19.1 2.1C19.1 2 19.2 2 19.4 2C20.2 2 21.2 2 21.2 2C21.4 2 22.4 2 23 2C23.2 2 23.3 2 23.3 2.1C23.3 2.2 23.2 2.3 23 2.3C22.8 2.3 22.7 2.3 22.5 2.4C22.1 2.5 22 2.7 21.9 3.2C21.9 3.7 21.9 4.1 21.9 6.3V7.9C21.9 9.6 21.7 11.3 20.4 12.4C19.3 13.3 18.1 13.5 17.1 13.5C16.3 13.5 14.7 13.5 13.6 12.5C12.8 11.8 12.2 10.7 12.2 8.6L12.4 6.3ZM24.8 13C24.6 12.9 24.5 12.8 24.5 12.5C24.5 11.7 24.6 10.8 24.6 10.5C24.6 10.3 24.7 10.1 24.8 10.1C24.9 10.1 25 10.2 25 10.3C25 10.5 25.1 10.8 25.1 11.1C25.4 12.2 26.6 12.6 27.6 12.6C28.9 12.6 29.7 11.8 29.7 10.7C29.7 10.1 29.5 9.4 28.2 8.6L27.3 8.1C25.5 7 24.9 6 24.9 4.7C24.9 2.9 26.7 1.7 28.8 1.7C29.8 1.7 30.6 1.8 31 1.9C31.1 1.9 31.2 2 31.2 2.1C31.2 2.3 31.1 2.7 31.1 3.9C31.1 4.2 31 4.4 30.9 4.4C30.8 4.4 30.7 4.3 30.7 4.1C30.7 4 30.6 3.5 30.3 3.1C30.1 2.8 29.6 2.4 28.6 2.4C27.5 2.4 26.5 3 26.5 4C26.5 4.7 26.7 5.2 28.1 6L28.7 6.3C30.7 7.4 31.4 8.5 31.4 9.9C31.4 11 31 11.9 29.9 12.7C29.2 13.2 28.1 13.3 27.3 13.3C26.4 13.4 25.5 13.3 24.8 13ZM34 6.3C34 4.1 34 3.6 34 3.2C34 2.7 33.8 2.5 33.5 2.4C33.3 2.3 33.1 2.3 32.9 2.3C32.7 2.3 32.7 2.3 32.7 2.1C32.7 2 32.8 2 33.1 2C33.7 2 34.7 2 35.2 2C35.6 2 36.6 2 37.2 2C37.4 2 37.5 2 37.5 2.1C37.5 2.2 37.4 2.3 37.3 2.3C37.2 2.3 37 2.3 36.8 2.4C36.4 2.5 36.3 2.7 36.2 3.2C36.2 3.7 36.2 4.1 36.2 6.3V8.9C36.2 10.3 36.2 11.5 36.3 12.1C36.4 12.5 36.5 12.7 36.9 12.8C37.1 12.8 37.5 12.9 37.7 12.9C37.9 12.9 37.9 13 37.9 13.1C37.9 13.2 37.8 13.3 37.6 13.3C36.6 13.3 35.5 13.2 35.1 13.2C34.7 13.2 33.7 13.3 33.1 13.3C32.9 13.3 32.8 13.2 32.8 13.1C32.8 13 32.9 12.9 33 12.9C33.2 12.9 33.4 12.9 33.5 12.8C33.8 12.7 33.9 12.5 34 12.1C34 11.5 34 10.3 34 8.9V6.3ZM41.4 11.2C41.4 12.4 41.6 12.7 41.9 12.8C42.2 12.9 42.5 12.9 42.7 12.9C42.9 12.9 43 13 43 13.1C43 13.2 42.9 13.3 42.6 13.3C41.6 13.3 40.9 13.2 40.6 13.2C40.5 13.2 39.7 13.3 38.9 13.3C38.7 13.3 38.5 13.3 38.5 13.1C38.5 13 38.6 12.9 38.7 12.9C38.9 12.9 39.2 12.9 39.4 12.8C40 12.7 40 12.3 40 11L40.1 2.2C40.1 1.9 40.2 1.7 40.4 1.7C40.6 1.7 40.8 1.9 41.1 2.2C41.3 2.4 43.6 4.7 45.8 6.9C46.9 7.9 48.9 10 49.1 10.2H49.2L49 3.6C49 2.7 48.8 2.4 48.5 2.3C48.3 2.2 47.9 2.2 47.7 2.2C47.5 2.2 47.5 2.1 47.5 2C47.5 2 47.7 2 47.9 2C48.7 2 49.5 2 49.9 2C50.1 2 50.7 2 51.4 2C51.6 2 51.8 2 51.8 2.1C51.8 2.2 51.7 2.3 51.5 2.3C51.3 2.3 51.2 2.3 51 2.4C50.6 2.5 50.5 2.8 50.4 3.6L50.2 12.9C50.2 13.2 50.1 13.4 50 13.4C49.7 13.4 49.5 13.2 49.4 13.1C48.4 12.2 46.5 10.4 44.9 8.8C43.2 7.2 41.6 5.4 41.3 5.1H41.2L41.4 11.2ZM54.4 6.3C54.4 4.1 54.4 3.6 54.4 3.2C54.4 2.7 54.2 2.5 53.7 2.4C53.6 2.4 53.3 2.3 53.1 2.3C52.9 2.3 52.8 2.2 52.8 2.1C52.8 2 53 2 53.2 2C54 2 55 2 55.4 2C55.9 2 59.3 2 59.6 2C59.9 2 60.1 1.9 60.2 1.9C60.3 1.9 60.4 1.8 60.4 1.8C60.5 1.8 60.5 1.9 60.5 1.9C60.5 2 60.4 2.2 60.4 2.9C60.4 3.1 60.3 3.7 60.3 3.9C60.3 4 60.2 4.1 60.1 4.1C60 4.1 60 4 60 3.9C60 3.8 60 3.5 59.9 3.4C59.8 3.1 59.7 2.9 58.9 2.9C58.6 2.9 56.8 2.8 56.5 2.8C56.4 2.8 56.4 2.9 56.4 2.9V6.6C56.4 6.7 56.4 6.8 56.5 6.8C56.9 6.8 58.8 6.8 59.2 6.8C59.6 6.8 59.8 6.7 59.9 6.6C60 6.5 60.1 6.4 60.1 6.4C60.2 6.4 60.2 6.5 60.2 6.6C60.2 6.7 60.2 6.9 60.1 7.7C60.1 8 60 8.6 60 8.7C60 8.8 60 9 59.8 9C59.7 9 59.7 8.9 59.7 8.9C59.7 8.7 59.7 8.6 59.6 8.4C59.5 8.1 59.3 7.9 58.7 7.8C58.4 7.8 56.7 7.7 56.3 7.7C56.2 7.7 56.2 7.8 56.2 7.9V9.1C56.2 9.6 56.2 10.9 56.2 11.3C56.2 12.3 56.7 12.5 58.3 12.5C58.7 12.5 59.4 12.5 59.8 12.3C60.2 12.1 60.4 11.8 60.5 11.2C60.5 11 60.6 11 60.7 11C60.8 11 60.8 11.2 60.8 11.3C60.8 11.6 60.7 12.6 60.6 12.9C60.5 13.3 60.4 13.3 59.8 13.3C58.6 13.3 57.7 13.3 57 13.2C56.2 13.2 55.7 13.2 55.2 13.2C55 13.2 54.7 13.2 54.3 13.2C53.9 13.2 53.5 13.2 53.2 13.2C53 13.2 52.9 13.1 52.9 13C52.9 12.9 53 12.8 53.1 12.8C53.3 12.8 53.5 12.8 53.6 12.7C53.9 12.6 54 12.4 54.1 11.9C54.2 11.3 54.2 10.1 54.2 8.7L54.4 6.3ZM62.9 13C62.7 12.9 62.6 12.8 62.6 12.5C62.6 11.7 62.7 10.8 62.7 10.5C62.7 10.3 62.8 10.1 62.9 10.1C63 10.1 63.1 10.2 63.1 10.3C63.1 10.5 63.2 10.8 63.2 11.1C63.5 12.2 64.7 12.6 65.7 12.6C67 12.6 67.8 11.8 67.8 10.7C67.8 10.1 67.6 9.4 66.3 8.6L65.4 8.1C63.6 7 63 6.1 63 4.7C63 2.9 64.8 1.7 66.9 1.7C67.9 1.7 68.7 1.8 69.1 1.9C69.2 1.9 69.3 2 69.3 2.1C69.3 2.3 69.2 2.7 69.2 3.9C69.2 4.2 69.1 4.4 69 4.4C68.9 4.4 68.8 4.3 68.8 4.1C68.8 4 68.7 3.5 68.4 3.1C68.2 2.8 67.7 2.4 66.7 2.4C65.6 2.4 64.6 3 64.6 4C64.6 4.7 64.8 5.2 66.2 6L66.8 6.3C68.8 7.4 69.5 8.5 69.5 9.9C69.5 11 69.1 11.9 68 12.7C67.3 13.2 66.2 13.3 65.4 13.3C64.6 13.4 63.6 13.3 62.9 13ZM71.7 13C71.5 12.9 71.4 12.8 71.4 12.5C71.4 11.7 71.5 10.8 71.5 10.5C71.5 10.3 71.6 10.1 71.7 10.1C71.8 10.1 71.9 10.2 71.9 10.3C71.9 10.5 72 10.8 72 11.1C72.3 12.2 73.5 12.6 74.5 12.6C75.8 12.6 76.6 11.8 76.6 10.7C76.6 10.1 76.4 9.4 75.1 8.6L74.2 8.1C72.4 7 71.8 6 71.8 4.7C71.8 2.9 73.6 1.7 75.7 1.7C76.7 1.7 77.5 1.8 77.9 1.9C77.9 2 78 2.1 78 2.2C78 2.4 78 2.8 78 4C78 4.3 77.9 4.5 77.8 4.5C77.7 4.5 77.6 4.4 77.6 4.2C77.6 4.1 77.5 3.6 77.2 3.2C77 2.9 76.5 2.5 75.5 2.5C74.4 2.5 73.4 3.1 73.4 4.1C73.4 4.8 73.6 5.3 75 6.1L75.6 6.4C77.6 7.5 78.3 8.6 78.3 10C78.3 11.1 77.9 12 76.8 12.8C76.1 13.3 75 13.4 74.2 13.4C73.3 13.4 72.3 13.3 71.7 13ZM2.5 23.7C2.5 21 2.5 20.6 2.5 20C2.5 19.4 2.3 19.1 1.9 19C1.7 18.9 1.5 18.9 1.3 18.9C1.1 18.9 1 18.9 1 18.7C1 18.6 1.1 18.6 1.4 18.6C2.1 18.6 3.2 18.7 3.7 18.7C4.1 18.7 5.2 18.6 5.8 18.6C6 18.6 6.2 18.6 6.2 18.7C6.2 18.8 6.1 18.9 5.9 18.9C5.7 18.9 5.6 18.9 5.4 19C4.9 19.1 4.8 19.4 4.8 20C4.8 20.6 4.8 21 4.8 23.7V26.8C4.8 28.5 4.8 29.9 4.9 30.6C5 31.1 5.1 31.4 5.6 31.5C5.8 31.5 6.2 31.6 6.5 31.6C6.7 31.6 6.8 31.7 6.8 31.7C6.8 31.8 6.7 31.9 6.5 31.9C5.3 31.9 4.2 31.8 3.8 31.8C3.4 31.8 2.3 31.9 1.6 31.9C1.4 31.9 1.2 31.8 1.2 31.7C1.2 31.6 1.3 31.6 1.5 31.6C1.7 31.6 1.9 31.6 2.1 31.5C2.5 31.4 2.6 31.1 2.6 30.6C2.7 29.9 2.7 28.5 2.7 26.8L2.5 23.7ZM11.4 29.8C11.4 31 11.6 31.3 11.9 31.4C12.2 31.5 12.5 31.5 12.7 31.5C12.9 31.5 13 31.6 13 31.7C13 31.8 12.9 31.9 12.6 31.9C11.6 31.9 10.9 31.8 10.6 31.8C10.5 31.8 9.7 31.9 8.9 31.9C8.7 31.9 8.5 31.9 8.5 31.7C8.5 31.6 8.6 31.5 8.7 31.5C8.9 31.5 9.2 31.5 9.4 31.4C9.8 31.3 9.9 30.9 9.9 29.6L10 20.8C10 20.5 10.1 20.3 10.3 20.3C10.5 20.3 10.7 20.5 11 20.8C11.2 21 13.5 23.3 15.7 25.5C16.8 26.5 18.8 28.6 19 28.8H19.1L18.9 22.2C18.9 21.3 18.7 21 18.4 20.9C18.2 20.8 17.8 20.8 17.6 20.8C17.4 20.8 17.4 20.7 17.4 20.6C17.4 20.5 17.6 20.5 17.8 20.5C18.6 20.5 19.4 20.5 19.8 20.5C20 20.5 20.6 20.5 21.3 20.5C21.5 20.5 21.7 20.5 21.7 20.6C21.7 20.7 21.6 20.8 21.4 20.8C21.2 20.8 21.1 20.8 20.9 20.9C20.5 21 20.4 21.3 20.3 22.1L20.1 31.4C20.1 31.7 20 31.9 19.9 31.9C19.6 31.9 19.4 31.7 19.3 31.6C18.3 30.7 16.4 28.9 14.8 27.3C13.1 25.7 11.5 23.9 11.2 23.6H11.1L11.4 29.8ZM25.1 31.6C24.9 31.5 24.8 31.4 24.8 31.1C24.8 30.3 24.9 29.4 24.9 29.1C24.9 28.9 25 28.7 25.1 28.7C25.2 28.7 25.3 28.8 25.3 28.9C25.3 29.1 25.4 29.4 25.4 29.7C25.7 30.8 26.9 31.2 27.9 31.2C29.2 31.2 30 30.4 30 29.3C30 28.7 29.8 28 28.5 27.2L27.6 26.7C25.8 25.6 25.2 24.6 25.2 23.3C25.2 21.5 27 20.3 29.1 20.3C30.1 20.3 30.9 20.4 31.3 20.5C31.4 20.5 31.5 20.6 31.5 20.7C31.5 20.9 31.4 21.3 31.4 22.5C31.4 22.8 31.3 23 31.2 23C31.1 23 31 22.9 31 22.7C31 22.6 30.9 22.1 30.6 21.7C30.4 21.4 29.9 21 28.9 21C27.8 21 26.8 21.6 26.8 22.6C26.8 23.3 27 23.8 28.4 24.6L29 25C31 26.1 31.7 27.2 31.7 28.6C31.7 29.7 31.3 30.6 30.2 31.4C29.5 31.9 28.4 32 27.6 32C26.7 32 25.7 31.9 25.1 31.6ZM35.8 24.9C35.8 22.7 35.8 22.2 35.8 21.8C35.8 21.3 35.6 21.1 35.3 21C35.1 20.9 34.9 20.9 34.7 20.9C34.5 20.9 34.5 20.9 34.5 20.7C34.5 20.6 34.6 20.6 34.9 20.6C35.5 20.6 36.5 20.6 37 20.6C37.4 20.6 38.4 20.6 39 20.6C39.2 20.6 39.3 20.6 39.3 20.7C39.3 20.8 39.2 20.9 39.1 20.9C38.9 20.9 38.8 20.9 38.6 21C38.2 21.1 38.1 21.3 38 21.8C38 22.3 38 22.7 38 24.9V27.5C38 28.9 38 30.1 38.1 30.7C38.2 31.1 38.3 31.3 38.7 31.4C38.9 31.4 39.3 31.5 39.5 31.5C39.7 31.5 39.7 31.6 39.7 31.7C39.7 31.8 39.6 31.9 39.4 31.9C38.4 31.9 37.3 31.8 36.9 31.8C36.5 31.8 35.5 31.9 34.9 31.9C34.7 31.9 34.6 31.8 34.6 31.7C34.6 31.6 34.7 31.5 34.8 31.5C35 31.5 35.2 31.5 35.3 31.4C35.6 31.3 35.7 31.1 35.8 30.7C35.9 30.1 35.9 28.9 35.9 27.5L35.8 24.9ZM45.7 26.5C45.7 28.1 45.7 29.2 45.7 29.5C45.7 29.9 45.8 30.4 45.9 30.5C46.1 30.8 46.7 31.1 47.9 31.1C49.3 31.1 50.3 30.9 51.3 30.1C52.3 29.3 52.6 28 52.6 26.4C52.6 24.5 51.8 23.3 51.2 22.7C49.8 21.4 48.1 21.3 46.9 21.3C46.6 21.3 46.1 21.3 46 21.4C45.9 21.5 45.8 21.5 45.8 21.7C45.8 22.2 45.8 23.4 45.8 24.6L45.7 26.5ZM43.6 24.9C43.6 22.7 43.6 22.2 43.6 21.8C43.6 21.3 43.4 21.1 42.9 21C42.8 21 42.5 20.9 42.3 20.9C42.1 20.9 42 20.8 42 20.7C42 20.6 42.1 20.6 42.4 20.6C43.2 20.6 44.2 20.6 44.6 20.6C45.1 20.6 46.2 20.6 47.1 20.6C49 20.6 51.6 20.6 53.3 22.3C54.1 23.1 54.8 24.3 54.8 26.1C54.8 28 54 29.4 53.1 30.2C52.4 30.9 50.8 31.9 47.9 31.9C47.3 31.9 46.7 31.8 46.1 31.8C45.5 31.7 44.9 31.7 44.5 31.7C44.3 31.7 44 31.7 43.6 31.7C43.2 31.7 42.8 31.7 42.5 31.7C42.3 31.7 42.2 31.6 42.2 31.5C42.2 31.4 42.3 31.3 42.4 31.3C42.6 31.3 42.8 31.3 42.9 31.2C43.2 31.1 43.3 30.9 43.4 30.4C43.5 29.8 43.5 28.6 43.5 27.2L43.6 24.9ZM58.8 24.9C58.8 22.7 58.8 22.2 58.8 21.8C58.8 21.3 58.6 21.1 58.1 21C58 21 57.7 20.9 57.5 20.9C57.3 20.9 57.2 20.8 57.2 20.7C57.2 20.6 57.3 20.6 57.6 20.6C58.4 20.6 59.4 20.6 59.8 20.6C60.3 20.6 63.7 20.6 64 20.6C64.3 20.6 64.5 20.5 64.6 20.5C64.7 20.5 64.8 20.4 64.8 20.4C64.9 20.4 64.9 20.5 64.9 20.5C64.9 20.6 64.8 20.8 64.8 21.5C64.8 21.7 64.7 22.3 64.7 22.5C64.7 22.6 64.6 22.7 64.5 22.7C64.4 22.7 64.4 22.6 64.4 22.5C64.4 22.4 64.4 22.1 64.3 22C64.2 21.7 64.1 21.5 63.3 21.5C63 21.5 61.2 21.4 60.9 21.4C60.8 21.4 60.8 21.5 60.8 21.5V25.2C60.8 25.3 60.8 25.4 60.9 25.4C61.3 25.4 63.2 25.4 63.6 25.4C64 25.4 64.2 25.3 64.3 25.2C64.4 25.1 64.5 25 64.5 25C64.5 25 64.6 25.1 64.6 25.2C64.6 25.3 64.6 25.5 64.5 26.3C64.5 26.6 64.4 27.2 64.4 27.3C64.4 27.4 64.4 27.6 64.2 27.6C64.1 27.6 64.1 27.5 64.1 27.5C64.1 27.3 64.1 27.2 64 27C63.9 26.7 63.7 26.5 63.1 26.4C62.8 26.4 61.1 26.3 60.7 26.3C60.6 26.3 60.6 26.4 60.6 26.5V27.7C60.6 28.2 60.6 29.5 60.6 29.9C60.6 30.9 61.1 31.1 62.7 31.1C63.1 31.1 63.8 31.1 64.2 30.9C64.6 30.7 64.8 30.4 64.9 29.8C64.9 29.6 65 29.6 65.1 29.6C65.2 29.6 65.2 29.8 65.2 29.9C65.2 30.2 65.1 31.2 65 31.5C64.9 31.9 64.8 31.9 64.2 31.9C63 31.9 62.1 31.9 61.4 31.8C60.6 31.8 60.1 31.8 59.6 31.8C59.4 31.8 59.1 31.8 58.7 31.8C58.3 31.8 57.9 31.8 57.6 31.8C57.4 31.8 57.3 31.7 57.3 31.6C57.3 31.5 57.4 31.4 57.5 31.4C57.7 31.4 57.9 31.4 58 31.3C58.3 31.2 58.4 31 58.5 30.5C58.6 29.9 58.6 28.7 58.6 27.3L58.8 24.9ZM71.2 26C71.2 26.2 71.2 26.2 71.3 26.3C71.6 26.4 72.1 26.4 72.5 26.4C73.1 26.4 73.3 26.3 73.6 26.2C74.1 25.9 74.6 25.2 74.6 24C74.6 21.9 73.2 21.4 72.3 21.4C71.9 21.4 71.5 21.4 71.4 21.5C71.3 21.5 71.3 21.6 71.3 21.7V26H71.2ZM69.2 24.9C69.2 22.7 69.2 22.2 69.2 21.8C69.2 21.3 69 21.1 68.5 21C68.4 21 68.1 20.9 67.9 20.9C67.7 20.9 67.6 20.8 67.6 20.7C67.6 20.6 67.7 20.6 68 20.6C68.8 20.6 69.8 20.6 70.1 20.6C70.6 20.6 72 20.6 72.5 20.6C73.5 20.6 74.6 20.7 75.4 21.2C75.8 21.5 76.5 22.2 76.5 23.2C76.5 24.3 75.9 25.3 74.4 26.5C75.8 28.2 76.9 29.5 77.8 30.4C78.7 31.3 79.2 31.3 79.4 31.4C79.6 31.4 79.6 31.4 79.8 31.4C80 31.4 80 31.5 80 31.6C80 31.7 79.9 31.8 79.7 31.8H78.2C77.3 31.8 76.9 31.7 76.5 31.5C75.8 31.2 75.3 30.5 74.4 29.3C73.8 28.5 73.1 27.5 72.9 27.3C72.8 27.2 72.7 27.2 72.6 27.2H71.2C71.1 27.2 71.1 27.2 71.1 27.3V27.5C71.1 28.9 71.1 30 71.2 30.7C71.3 31.1 71.3 31.4 71.8 31.5C72 31.5 72.4 31.6 72.6 31.6C72.7 31.6 72.8 31.7 72.8 31.8C72.8 31.9 72.7 32 72.5 32C71.6 32 70.3 31.9 70.1 31.9C69.8 31.9 68.8 32 68.2 32C68 32 67.9 31.9 67.9 31.8C67.9 31.7 68 31.6 68.1 31.6C68.3 31.6 68.5 31.6 68.6 31.5C68.9 31.4 69 31.2 69.1 30.7C69.2 30.1 69.2 28.9 69.2 27.5V24.9Z" fill="#171A1E"></path></svg>