<svg xmlns="http://www.w3.org/2000/svg" width="145" height="49" viewBox="0 0 145 49" fill="none"><path d="M0 16.5C0 7.66344 7.16344 0.5 16 0.5H129C137.837 0.5 145 7.66344 145 16.5V32.5C145 41.3366 137.837 48.5 129 48.5H16C7.16344 48.5 0 41.3366 0 32.5V16.5Z" fill="#171A1E"></path><path d="M27.9616 15.9263C28.6388 15.0421 29.2031 13.7711 28.9774 12.5C27.8487 12.5553 26.5507 13.2737 25.7606 14.2132C25.0834 15.0421 24.4626 16.3132 24.6884 17.5289C25.9299 17.5842 27.2279 16.8658 27.9616 15.9263Z" fill="white"></path><path d="M33.4357 19.5184C32.3634 18.1921 30.8397 17.3632 29.3724 17.3632C27.4537 17.3632 26.6636 18.2474 25.3656 18.2474C24.0112 18.2474 22.9954 17.3632 21.3588 17.3632C19.7222 17.3632 18.0292 18.3579 16.9569 20.0158C15.4332 22.4474 15.6589 26.8684 18.142 30.6263C19.045 31.9526 20.2301 33.5 21.7538 33.5C23.1082 33.5 23.5033 32.6158 25.3656 32.6158C27.2279 32.6158 27.5665 33.5 28.9774 33.5C30.5011 33.5 31.7991 31.7868 32.6456 30.4605C33.2664 29.4658 33.4921 29.0237 34 27.9184C30.4447 26.5368 29.8803 21.5079 33.4357 19.5184Z" fill="white"></path><path d="M45.078 17.5V9.8H48.092C48.8253 9.8 49.4597 9.96133 49.995 10.284C50.5377 10.6067 50.9557 11.0577 51.249 11.637C51.5497 12.2163 51.7 12.8873 51.7 13.65C51.7 14.42 51.5533 15.0947 51.26 15.674C50.9667 16.246 50.5487 16.6933 50.006 17.016C49.4707 17.3387 48.8327 17.5 48.092 17.5H45.078ZM48.037 10.944H46.266V16.356H48.037C48.8143 16.356 49.4157 16.1177 49.841 15.641C50.2737 15.157 50.49 14.4933 50.49 13.65C50.49 12.814 50.2737 12.154 49.841 11.67C49.4083 11.186 48.807 10.944 48.037 10.944ZM56.5295 17.61C55.9868 17.61 55.4845 17.511 55.0225 17.313C54.5678 17.115 54.1682 16.84 53.8235 16.488C53.4862 16.1287 53.2222 15.7107 53.0315 15.234C52.8482 14.75 52.7565 14.222 52.7565 13.65C52.7565 13.078 52.8482 12.5537 53.0315 12.077C53.2222 11.593 53.4862 11.175 53.8235 10.823C54.1682 10.4637 54.5678 10.185 55.0225 9.987C55.4845 9.789 55.9868 9.69 56.5295 9.69C57.0722 9.69 57.5708 9.789 58.0255 9.987C58.4875 10.185 58.8872 10.4637 59.2245 10.823C59.5692 11.1823 59.8332 11.604 60.0165 12.088C60.2072 12.5647 60.3025 13.0853 60.3025 13.65C60.3025 14.2147 60.2072 14.739 60.0165 15.223C59.8332 15.6997 59.5692 16.1177 59.2245 16.477C58.8872 16.8363 58.4875 17.115 58.0255 17.313C57.5708 17.511 57.0722 17.61 56.5295 17.61ZM56.5295 16.455C57.0208 16.455 57.4608 16.334 57.8495 16.092C58.2382 15.85 58.5425 15.5163 58.7625 15.091C58.9825 14.6657 59.0925 14.1853 59.0925 13.65C59.0925 13.1147 58.9825 12.6343 58.7625 12.209C58.5425 11.7837 58.2382 11.45 57.8495 11.208C57.4608 10.966 57.0208 10.845 56.5295 10.845C56.0308 10.845 55.5872 10.966 55.1985 11.208C54.8172 11.45 54.5165 11.7837 54.2965 12.209C54.0765 12.627 53.9665 13.1073 53.9665 13.65C53.9665 14.1927 54.0765 14.6767 54.2965 15.102C54.5165 15.52 54.8172 15.85 55.1985 16.092C55.5872 16.334 56.0308 16.455 56.5295 16.455ZM63.4963 17.5L61.0433 9.8H62.3083L63.7933 14.618C63.8373 14.75 63.8776 14.9077 63.9143 15.091C63.9583 15.2743 63.9986 15.454 64.0353 15.63C64.1233 15.3147 64.1893 15.0873 64.2333 14.948C64.2773 14.8087 64.3176 14.695 64.3543 14.607L65.7403 11.131H66.8073L68.1493 14.607C68.2153 14.7757 68.274 14.9407 68.3253 15.102C68.3766 15.256 68.4243 15.4137 68.4683 15.575C68.483 15.487 68.4976 15.41 68.5123 15.344C68.527 15.2707 68.549 15.179 68.5783 15.069C68.615 14.9517 68.6663 14.7903 68.7323 14.585L70.1953 9.8H71.4713L69.0183 17.5H68.1933L66.2133 12.825L64.2993 17.5H63.4963ZM72.8143 17.5V9.8H73.8813L78.3583 15.795C78.2997 15.3477 78.2557 14.8307 78.2263 14.244C78.2043 13.6573 78.1933 13.0193 78.1933 12.33V9.8H79.3813V17.5H78.2923L73.8153 11.626C73.8667 12.264 73.907 12.759 73.9363 13.111C73.9657 13.4557 73.984 13.716 73.9913 13.892C73.9987 14.0607 74.0023 14.1963 74.0023 14.299V17.5H72.8143ZM81.537 17.5V9.8H82.725V16.356H86.333V17.5H81.537ZM91.1301 17.61C90.5874 17.61 90.0851 17.511 89.6231 17.313C89.1684 17.115 88.7688 16.84 88.4241 16.488C88.0868 16.1287 87.8228 15.7107 87.6321 15.234C87.4488 14.75 87.3571 14.222 87.3571 13.65C87.3571 13.078 87.4488 12.5537 87.6321 12.077C87.8228 11.593 88.0868 11.175 88.4241 10.823C88.7688 10.4637 89.1684 10.185 89.6231 9.987C90.0851 9.789 90.5874 9.69 91.1301 9.69C91.6728 9.69 92.1714 9.789 92.6261 9.987C93.0881 10.185 93.4878 10.4637 93.8251 10.823C94.1698 11.1823 94.4338 11.604 94.6171 12.088C94.8078 12.5647 94.9031 13.0853 94.9031 13.65C94.9031 14.2147 94.8078 14.739 94.6171 15.223C94.4338 15.6997 94.1698 16.1177 93.8251 16.477C93.4878 16.8363 93.0881 17.115 92.6261 17.313C92.1714 17.511 91.6728 17.61 91.1301 17.61ZM91.1301 16.455C91.6214 16.455 92.0614 16.334 92.4501 16.092C92.8388 15.85 93.1431 15.5163 93.3631 15.091C93.5831 14.6657 93.6931 14.1853 93.6931 13.65C93.6931 13.1147 93.5831 12.6343 93.3631 12.209C93.1431 11.7837 92.8388 11.45 92.4501 11.208C92.0614 10.966 91.6214 10.845 91.1301 10.845C90.6314 10.845 90.1878 10.966 89.7991 11.208C89.4178 11.45 89.1171 11.7837 88.8971 12.209C88.6771 12.627 88.5671 13.1073 88.5671 13.65C88.5671 14.1927 88.6771 14.6767 88.8971 15.102C89.1171 15.52 89.4178 15.85 89.7991 16.092C90.1878 16.334 90.6314 16.455 91.1301 16.455ZM95.4938 17.5L98.4748 9.8H99.6848L102.644 17.5H101.379L100.653 15.586H97.4298L96.7038 17.5H95.4938ZM98.4527 12.902L97.8698 14.442H100.224L99.6188 12.858C99.5968 12.8067 99.5528 12.6783 99.4868 12.473C99.4208 12.2677 99.3474 12.0403 99.2668 11.791C99.1861 11.5417 99.1128 11.3217 99.0468 11.131C98.9881 11.3217 98.9221 11.5307 98.8488 11.758C98.7754 11.9853 98.7021 12.2017 98.6288 12.407C98.5628 12.6123 98.5041 12.7773 98.4527 12.902ZM103.999 17.5V9.8H107.013C107.746 9.8 108.381 9.96133 108.916 10.284C109.459 10.6067 109.877 11.0577 110.17 11.637C110.471 12.2163 110.621 12.8873 110.621 13.65C110.621 14.42 110.474 15.0947 110.181 15.674C109.888 16.246 109.47 16.6933 108.927 17.016C108.392 17.3387 107.754 17.5 107.013 17.5H103.999ZM106.958 10.944H105.187V16.356H106.958C107.735 16.356 108.337 16.1177 108.762 15.641C109.195 15.157 109.411 14.4933 109.411 13.65C109.411 12.814 109.195 12.154 108.762 11.67C108.329 11.186 107.728 10.944 106.958 10.944Z" fill="white"></path><path d="M44.45 37.5L49.328 24.9H51.308L56.15 37.5H54.08L52.892 34.368H47.618L46.43 37.5H44.45ZM49.292 29.976L48.338 32.496H52.19L51.2 29.904C51.164 29.82 51.092 29.61 50.984 29.274C50.876 28.938 50.756 28.566 50.624 28.158C50.492 27.75 50.372 27.39 50.264 27.078C50.168 27.39 50.06 27.732 49.94 28.104C49.82 28.476 49.7 28.83 49.58 29.166C49.472 29.502 49.376 29.772 49.292 29.976ZM57.8995 41.46V28.05H59.7715V29.4C60.0595 28.992 60.4855 28.638 61.0495 28.338C61.6255 28.038 62.2195 27.888 62.8315 27.888C63.6835 27.888 64.4395 28.098 65.0995 28.518C65.7595 28.938 66.2815 29.514 66.6655 30.246C67.0495 30.978 67.2415 31.818 67.2415 32.766C67.2415 33.702 67.0495 34.542 66.6655 35.286C66.2935 36.018 65.7775 36.6 65.1175 37.032C64.4575 37.452 63.7135 37.662 62.8855 37.662C62.2735 37.662 61.6855 37.524 61.1215 37.248C60.5575 36.972 60.1075 36.642 59.7715 36.258V41.46H57.8995ZM62.5795 35.952C63.1315 35.952 63.6235 35.814 64.0555 35.538C64.4875 35.262 64.8295 34.884 65.0815 34.404C65.3335 33.924 65.4595 33.378 65.4595 32.766C65.4595 32.154 65.3335 31.614 65.0815 31.146C64.8415 30.666 64.5055 30.288 64.0735 30.012C63.6415 29.736 63.1435 29.598 62.5795 29.598C62.0155 29.598 61.5175 29.736 61.0855 30.012C60.6535 30.276 60.3115 30.648 60.0595 31.128C59.8075 31.608 59.6815 32.154 59.6815 32.766C59.6815 33.378 59.8075 33.924 60.0595 34.404C60.3115 34.884 60.6535 35.262 61.0855 35.538C61.5175 35.814 62.0155 35.952 62.5795 35.952ZM69.255 41.46V28.05H71.127V29.4C71.415 28.992 71.841 28.638 72.405 28.338C72.981 28.038 73.575 27.888 74.187 27.888C75.039 27.888 75.795 28.098 76.455 28.518C77.115 28.938 77.637 29.514 78.021 30.246C78.405 30.978 78.597 31.818 78.597 32.766C78.597 33.702 78.405 34.542 78.021 35.286C77.649 36.018 77.133 36.6 76.473 37.032C75.813 37.452 75.069 37.662 74.241 37.662C73.629 37.662 73.041 37.524 72.477 37.248C71.913 36.972 71.463 36.642 71.127 36.258V41.46H69.255ZM73.935 35.952C74.487 35.952 74.979 35.814 75.411 35.538C75.843 35.262 76.185 34.884 76.437 34.404C76.689 33.924 76.815 33.378 76.815 32.766C76.815 32.154 76.689 31.614 76.437 31.146C76.197 30.666 75.861 30.288 75.429 30.012C74.997 29.736 74.499 29.598 73.935 29.598C73.371 29.598 72.873 29.736 72.441 30.012C72.009 30.276 71.667 30.648 71.415 31.128C71.163 31.608 71.037 32.154 71.037 32.766C71.037 33.378 71.163 33.924 71.415 34.404C71.667 34.884 72.009 35.262 72.441 35.538C72.873 35.814 73.371 35.952 73.935 35.952ZM90.0114 37.68C87.9714 37.68 86.3874 36.864 85.2594 35.232L86.5914 33.702C87.1794 34.542 87.7434 35.124 88.2834 35.448C88.8234 35.772 89.4654 35.934 90.2094 35.934C90.8934 35.934 91.4694 35.778 91.9374 35.466C92.4174 35.154 92.6574 34.752 92.6574 34.26C92.6574 33.708 92.4234 33.258 91.9554 32.91C91.4874 32.55 90.7494 32.274 89.7414 32.082C87.1734 31.578 85.8894 30.3 85.8894 28.248C85.8894 27.564 86.0814 26.958 86.4654 26.43C86.8494 25.902 87.3654 25.488 88.0134 25.188C88.6734 24.876 89.4114 24.72 90.2274 24.72C92.2074 24.72 93.6294 25.458 94.4934 26.934L93.1254 28.284C92.7654 27.696 92.3334 27.246 91.8294 26.934C91.3374 26.622 90.7854 26.466 90.1734 26.466C89.4774 26.466 88.9134 26.628 88.4814 26.952C88.0494 27.264 87.8334 27.678 87.8334 28.194C87.8334 28.71 88.0254 29.13 88.4094 29.454C88.8054 29.766 89.4774 30.018 90.4254 30.21C91.7454 30.486 92.7714 30.93 93.5034 31.542C94.2354 32.154 94.6014 32.892 94.6014 33.756C94.6014 34.956 94.1874 35.91 93.3594 36.618C92.5434 37.326 91.4274 37.68 90.0114 37.68ZM98.0578 37.5V29.85H96.0958V28.05H98.0578V25.638H99.9118V28.05H102.108V29.85H99.9118V37.5H98.0578ZM107.956 37.68C107.032 37.68 106.204 37.47 105.472 37.05C104.752 36.618 104.182 36.036 103.762 35.304C103.342 34.56 103.132 33.714 103.132 32.766C103.132 31.818 103.342 30.978 103.762 30.246C104.182 29.502 104.752 28.92 105.472 28.5C106.204 28.068 107.032 27.852 107.956 27.852C108.868 27.852 109.684 28.068 110.404 28.5C111.136 28.92 111.712 29.502 112.132 30.246C112.552 30.978 112.762 31.818 112.762 32.766C112.762 33.714 112.552 34.56 112.132 35.304C111.712 36.036 111.136 36.618 110.404 37.05C109.684 37.47 108.868 37.68 107.956 37.68ZM107.956 35.988C108.52 35.988 109.024 35.85 109.468 35.574C109.912 35.286 110.26 34.902 110.512 34.422C110.764 33.93 110.884 33.378 110.872 32.766C110.884 32.142 110.764 31.59 110.512 31.11C110.26 30.618 109.912 30.234 109.468 29.958C109.024 29.682 108.52 29.544 107.956 29.544C107.392 29.544 106.882 29.688 106.426 29.976C105.982 30.252 105.634 30.636 105.382 31.128C105.13 31.608 105.01 32.154 105.022 32.766C105.01 33.378 105.13 33.93 105.382 34.422C105.634 34.902 105.982 35.286 106.426 35.574C106.882 35.85 107.392 35.988 107.956 35.988ZM114.782 37.5V28.05H116.654V29.832C116.93 29.268 117.332 28.8 117.86 28.428C118.388 28.044 118.946 27.852 119.534 27.852C119.738 27.852 119.93 27.87 120.11 27.906C120.302 27.942 120.452 27.984 120.56 28.032L120.074 30.048C119.93 29.988 119.768 29.94 119.588 29.904C119.42 29.856 119.252 29.832 119.084 29.832C118.652 29.832 118.25 29.94 117.878 30.156C117.518 30.372 117.224 30.666 116.996 31.038C116.768 31.41 116.654 31.824 116.654 32.28V37.5H114.782ZM126.048 37.68C125.076 37.68 124.212 37.476 123.456 37.068C122.712 36.648 122.124 36.078 121.692 35.358C121.272 34.638 121.062 33.81 121.062 32.874C121.062 31.878 121.266 31.008 121.674 30.264C122.094 29.508 122.664 28.92 123.384 28.5C124.116 28.068 124.95 27.846 125.886 27.834C126.702 27.846 127.434 28.05 128.082 28.446C128.742 28.842 129.258 29.382 129.63 30.066C130.014 30.75 130.194 31.536 130.17 32.424L130.152 33.216H122.916C123.024 34.068 123.372 34.746 123.96 35.25C124.56 35.742 125.316 35.988 126.228 35.988C126.696 35.988 127.128 35.91 127.524 35.754C127.932 35.598 128.37 35.316 128.838 34.908L129.774 36.222C129.33 36.654 128.766 37.008 128.082 37.284C127.398 37.548 126.72 37.68 126.048 37.68ZM125.886 29.544C124.266 29.544 123.3 30.276 122.988 31.74H128.28V31.614C128.244 31.218 128.112 30.864 127.884 30.552C127.656 30.24 127.368 29.994 127.02 29.814C126.672 29.634 126.294 29.544 125.886 29.544Z" fill="white"></path></svg>