<svg width="18" height="18" viewBox="0 0 18 18" fill="none" xmlns="http://www.w3.org/2000/svg">
<path d="M9 18C13.9706 18 18 13.9706 18 9C18 4.02944 13.9706 0 9 0C4.02944 0 0 4.02944 0 9C0 13.9706 4.02944 18 9 18Z" fill="#F0F0F0"/>
<path d="M1.88937 3.51001C1.16937 4.41001 0.629375 5.49001 0.359375 6.66001H5.03937L1.88937 3.51001Z" fill="#0052B4"/>
<path d="M17.7308 6.66001C17.4608 5.49001 16.9208 4.41001 16.2008 3.51001L13.0508 6.66001H17.7308Z" fill="#0052B4"/>
<path d="M0.269531 11.3398C0.539531 12.5098 1.07953 13.5898 1.79953 14.4898L4.94953 11.3398H0.269531Z" fill="#0052B4"/>
<path d="M14.4898 1.88999C13.5898 1.16999 12.5098 0.629985 11.3398 0.359985V5.03999L14.4898 1.88999Z" fill="#0052B4"/>
<path d="M3.51172 16.11C4.41172 16.83 5.49172 17.37 6.66172 17.64V12.96L3.51172 16.11Z" fill="#0052B4"/>
<path d="M6.66172 0.269897C5.49172 0.629897 4.41172 1.1699 3.51172 1.8899L6.66172 5.0399V0.269897Z" fill="#0052B4"/>
<path d="M11.3398 17.7299C12.5098 17.4599 13.5898 16.9199 14.4898 16.1999L11.3398 13.0499V17.7299Z" fill="#0052B4"/>
<path d="M13.0508 11.3398L16.2008 14.4898C16.9208 13.5898 17.4608 12.5098 17.7308 11.3398H13.0508Z" fill="#0052B4"/>
<path d="M17.91 7.83H10.17V0.09C9.81 0 9.36 0 9 0C8.64 0 8.19 0 7.83 0.09V7.83H0.09C0 8.19 0 8.64 0 9C0 9.36 0 9.81 0.09 10.17H7.83V17.91C8.19 18 8.64 18 9 18C9.36 18 9.81 18 10.17 17.91V10.17H17.91C18 9.81 18 9.36 18 9C18 8.64 18 8.19 17.91 7.83Z" fill="#D80027"/>
<path d="M11.3398 11.34L15.3898 15.39C15.5698 15.21 15.7498 15.03 15.9298 14.85L12.5098 11.43L11.3398 11.34Z" fill="#D80027"/>
<path d="M6.65938 11.34L2.60938 15.39C2.78938 15.57 2.96937 15.75 3.14937 15.93L6.56938 12.51V11.34H6.65938Z" fill="#D80027"/>
<path d="M6.66031 6.65999L2.61031 2.60999C2.43031 2.78999 2.25031 2.96999 2.07031 3.23999L5.49031 6.65999H6.66031Z" fill="#D80027"/>
<path d="M11.3398 6.65995L15.3898 2.60995C15.2098 2.42995 15.0298 2.24995 14.8498 2.06995L11.4298 5.48995V6.65995H11.3398Z" fill="#D80027"/>
</svg>
