<svg width="18" height="18" viewBox="0 0 18 18" fill="none" xmlns="http://www.w3.org/2000/svg">
<path d="M9 18C13.9706 18 18 13.9706 18 9C18 4.02944 13.9706 0 9 0C4.02944 0 0 4.02944 0 9C0 13.9706 4.02944 18 9 18Z" fill="#F0F0F0"/>
<path d="M17.9984 9.00002C17.9984 5.40002 15.8984 2.30002 12.8984 0.900024V17.1C15.8984 15.7 17.9984 12.6 17.9984 9.00002Z" fill="#D80027"/>
<path d="M0 9.00002C0 12.6 2.1 15.7 5.1 17.1V0.900024C2.1 2.30002 0 5.40002 0 9.00002Z" fill="#D80027"/>
<path d="M10.5984 10.2L12.1984 9.40005L11.2984 9.00005V8.20005L9.79844 9.00005L10.5984 7.40005H9.79844L8.99844 6.30005L8.19844 7.40005H7.39844L8.19844 9.00005L6.69844 8.20005V9.00005L5.89844 9.40005L7.49844 10.2L6.99844 11H8.59844V12.2H9.39844V11H10.9984L10.5984 10.2Z" fill="#D80027"/>
</svg>
