<svg width="18" height="18" viewBox="0 0 18 18" fill="none" xmlns="http://www.w3.org/2000/svg">
<path d="M9 18C13.9706 18 18 13.9706 18 9C18 4.02944 13.9706 0 9 0C4.02944 0 0 4.02944 0 9C0 13.9706 4.02944 18 9 18Z" fill="#0052B4"/>
<path d="M8.99828 3.51001L9.26828 4.41001H10.1683L9.44828 4.95001L9.71828 5.85001L8.99828 5.31001L8.27828 5.85001L8.54828 4.95001L7.73828 4.41001H8.63828L8.99828 3.51001Z" fill="#FFDA44"/>
<path d="M5.12922 5.12995L5.93922 5.57995L6.56922 4.94995L6.38922 5.84995L7.19922 6.29995L6.29922 6.47995L6.11922 7.37995L5.84922 6.47995L4.94922 6.65995L5.57922 6.02995L5.12922 5.12995Z" fill="#FFDA44"/>
<path d="M3.51172 8.99996L4.41172 8.72996V7.82996L4.95172 8.54996L5.85172 8.27996L5.31172 8.99996L5.85172 9.71996L4.95172 9.44996L4.41172 10.17V9.26996L3.51172 8.99996Z" fill="#FFDA44"/>
<path d="M5.12922 12.87L5.57922 12.06L4.94922 11.43L5.84922 11.61L6.29922 10.8L6.47922 11.7L7.37922 11.88L6.56922 12.33L6.74922 13.23L6.11922 12.6L5.12922 12.87Z" fill="#FFDA44"/>
<path d="M8.99813 14.49L8.72812 13.59H7.82812L8.54813 13.05L8.27812 12.15L8.99813 12.69L9.71813 12.15L9.44813 13.05L10.1681 13.59H9.26813L8.99813 14.49Z" fill="#FFDA44"/>
<path d="M12.8708 12.8699L12.0608 12.4199L11.4308 13.0499L11.6108 12.1499L10.8008 11.6999L11.7008 11.5199L11.8808 10.6199L12.3308 11.4299L13.2308 11.2499L12.6008 11.8799L12.8708 12.8699Z" fill="#FFDA44"/>
<path d="M14.4884 8.99996L13.5884 9.26996V10.17L13.0484 9.44996L12.1484 9.71996L12.6884 8.99996L12.1484 8.27996L13.0484 8.54996L13.5884 7.82996V8.72996L14.4884 8.99996Z" fill="#FFDA44"/>
<path d="M12.8711 5.13002L12.4211 5.94002L13.0511 6.57002L12.1511 6.39002L11.7011 7.20002L11.5211 6.30002L10.6211 6.12002L11.4311 5.67002L11.2511 4.77002L11.8811 5.40002L12.8711 5.13002Z" fill="#FFDA44"/>
</svg>
