<svg width="18" height="18" viewBox="0 0 18 18" fill="none" xmlns="http://www.w3.org/2000/svg">
<g clip-path="url(#clip0)">
<path d="M9 18C13.9706 18 18 13.9706 18 9C18 4.02944 13.9706 0 9 0C4.02944 0 0 4.02944 0 9C0 13.9706 4.02944 18 9 18Z" fill="#F0F0F0"/>
<path d="M8.64062 9.00016H18.0006C18.0006 8.19016 17.9106 7.38016 17.7306 6.66016H8.64062V9.00016Z" fill="#D80027"/>
<path d="M8.64062 4.31998H16.7406C16.2006 3.41998 15.4806 2.60998 14.6706 1.97998H8.64062V4.31998Z" fill="#D80027"/>
<path d="M9.00187 18C11.1619 18 13.0519 17.28 14.5819 16.02H3.42188C4.95187 17.28 6.84187 18 9.00187 18Z" fill="#D80027"/>
<path d="M1.34953 13.68H16.7395C17.1895 12.96 17.5495 12.15 17.7295 11.34H0.269531C0.539531 12.15 0.899531 12.96 1.34953 13.68Z" fill="#D80027"/>
<path d="M4.14 1.44H4.95L4.23 1.98L4.5 2.88L3.78 2.34L2.97 2.88L3.24 2.07C2.61 2.61 1.98 3.33 1.53 4.05H1.8L1.26 4.41C1.17 4.5 1.17 4.59 1.08 4.77L1.35 5.49L0.9 5.13C0.72 5.4 0.63 5.58 0.54 5.85L0.81 6.66H1.71L0.99 7.2L1.26 8.1L0.54 7.56L0.09 7.92C0 8.28 0 8.64 0 9H9C9 4.05 9 3.42 9 0C7.2 0 5.58 0.54 4.14 1.44ZM4.5 8.1L3.78 7.56L2.97 8.1L3.24 7.2L2.52 6.66H3.42L3.69 5.76L3.96 6.66H4.86L4.23 7.2L4.5 8.1ZM4.23 4.59L4.5 5.49L3.78 4.95L2.97 5.49L3.24 4.59L2.52 4.05H3.42L3.69 3.15L3.96 4.05H4.86L4.23 4.59ZM7.74 8.1L7.02 7.56L6.21 8.1L6.48 7.2L5.76 6.66H6.66L6.93 5.76L7.2 6.66H8.1L7.47 7.2L7.74 8.1ZM7.47 4.59L7.74 5.49L7.02 4.95L6.21 5.49L6.48 4.59L5.76 4.05H6.66L6.93 3.15L7.2 4.05H8.1L7.47 4.59ZM7.47 1.98L7.74 2.88L7.02 2.34L6.21 2.88L6.48 1.98L5.76 1.44H6.66L6.93 0.54L7.2 1.44H8.1L7.47 1.98Z" fill="#0052B4"/>
</g>
<defs>
<clipPath id="clip0">
<rect width="18" height="18" fill="white"/>
</clipPath>
</defs>
</svg>
