<svg width="18" height="18" viewBox="0 0 18 18" fill="none" xmlns="http://www.w3.org/2000/svg">
<path d="M18 9C18 13.95 13.95 18 9 18C4.05 18 0 13.95 0 9L9 0C13.95 0 18 4.05 18 9Z" fill="#0052B4"/>
<path d="M9 4.68C9 3.06 9 2.07 9 0C4.05 0 0 4.05 0 9H4.68V6.39L7.38 9H9C9 8.37 9 7.83 9 7.38L6.39 4.68H9Z" fill="#F0F0F0"/>
<path d="M4.59188 1.17004C3.15188 1.98004 1.98188 3.15004 1.17188 4.59004V9.00004H3.51188V3.51004H9.00188C9.00188 2.79004 9.00188 2.07004 9.00188 1.17004H4.59188Z" fill="#D80027"/>
<path d="M8.99969 7.91993L5.75969 4.67993H4.67969L8.99969 8.99993C8.99969 8.99993 8.99969 8.27993 8.99969 7.91993Z" fill="#D80027"/>
<path d="M5.40188 10.5299L5.85188 11.5199L6.93187 11.2499L6.39187 12.2399L7.29188 12.9599L6.30187 13.3199V14.4899L5.40188 13.7699L4.50188 14.4899V13.3199L3.42188 13.0499L4.32188 12.3299L3.78187 11.3399L4.86188 11.6099L5.40188 10.5299Z" fill="#F0F0F0"/>
<path d="M13.5017 12.51L13.7717 13.05L14.3117 12.96L14.0417 13.5L14.4917 13.86L13.9517 13.95V14.49L13.5017 14.13L13.0517 14.49V13.95L12.5117 13.86L12.9617 13.5L12.6917 12.96L13.2317 13.05L13.5017 12.51Z" fill="#F0F0F0"/>
<path d="M11.1619 7.0199L11.4319 7.5599L11.9719 7.4699L11.7019 7.9199L12.1519 8.2799L11.6119 8.3699V8.9099L11.1619 8.5499L10.7119 8.9999V8.4599L10.1719 8.3699L10.6219 8.0099L10.3519 7.4699L10.8919 7.5599L11.1619 7.0199Z" fill="#F0F0F0"/>
<path d="M13.5017 3.86987L13.7717 4.40987L14.3117 4.31987L14.0417 4.85987L14.4917 5.21987L13.9517 5.30987V5.84987L13.5017 5.48987L13.0517 5.84987V5.30987L12.5117 5.21987L12.9617 4.85987L12.6917 4.31987L13.2317 4.40987L13.5017 3.86987Z" fill="#F0F0F0"/>
<path d="M15.4783 6.29993L15.7483 6.83993L16.2883 6.74993L16.0183 7.19993L16.4683 7.55993L15.9283 7.64993V8.18993L15.4783 7.82993L15.0283 8.18993V7.64993L14.4883 7.55993L14.9383 7.19993L14.6683 6.65993L15.2083 6.74993L15.4783 6.29993Z" fill="#F0F0F0"/>
<path d="M14.0406 9L14.2206 9.63H14.8506L14.4006 9.99L14.5806 10.62L14.0406 10.26L13.5006 10.53L13.6806 9.9L13.1406 9.54H13.7706L14.0406 9Z" fill="#F0F0F0"/>
</svg>
