<svg xmlns="http://www.w3.org/2000/svg" width="165" height="49" viewBox="0 0 165 49" fill="none"><path d="M0 16C0 7.16345 7.16344 0 16 0H149C157.837 0 165 7.16344 165 16V33C165 41.8366 157.837 49 149 49H16C7.16345 49 0 41.8366 0 33V16Z" fill="#171A1E"></path><path d="M29.8812 21.37L20.6 16.2866C19.8125 15.8956 18.9688 15.8956 18.2375 16.3425L27.0125 24.3306L29.8812 21.37Z" fill="white"></path><path d="M17.3375 17.1245C17.1125 17.4597 17 17.8507 17 18.2976V32.7097C17 33.1007 17.1125 33.4918 17.3375 33.8269L26.1125 25.1126L17.3375 17.1245Z" fill="white"></path><path d="M33.8188 23.4927L31.0062 21.9844L27.8562 25.1126L31.7375 28.6319L33.8188 27.5147C34.55 27.1236 35 26.3416 35 25.5595C35 24.6658 34.55 23.9396 33.8188 23.4927Z" fill="white"></path><path d="M18.1812 34.6648C18.575 34.8883 18.9688 35 19.4188 35C19.8125 35 20.2625 34.8883 20.6 34.6648L30.6125 29.1905L27.0125 25.8947L18.1812 34.6648Z" fill="white"></path><path d="M49.521 17.61C48.9637 17.61 48.443 17.511 47.959 17.313C47.475 17.1077 47.0497 16.8253 46.683 16.466C46.3163 16.1067 46.0303 15.6887 45.825 15.212C45.627 14.728 45.528 14.2073 45.528 13.65C45.528 13.1 45.627 12.5867 45.825 12.11C46.0303 11.6333 46.3127 11.219 46.672 10.867C47.0387 10.5077 47.464 10.229 47.948 10.031C48.432 9.833 48.9527 9.734 49.51 9.734C49.8987 9.734 50.2763 9.789 50.643 9.899C51.017 10.009 51.3543 10.163 51.655 10.361C51.9557 10.559 52.2013 10.7863 52.392 11.043L51.622 11.846C50.9547 11.208 50.2507 10.889 49.51 10.889C48.9893 10.889 48.52 11.01 48.102 11.252C47.684 11.494 47.3503 11.824 47.101 12.242C46.859 12.66 46.738 13.1293 46.738 13.65C46.738 14.0313 46.8113 14.3943 46.958 14.739C47.1047 15.0763 47.3063 15.3733 47.563 15.63C47.827 15.8867 48.1277 16.0883 48.465 16.235C48.8097 16.3817 49.1727 16.455 49.554 16.455C49.9427 16.455 50.2947 16.3817 50.61 16.235C50.9327 16.0883 51.1893 15.8903 51.38 15.641C51.578 15.3843 51.677 15.102 51.677 14.794V14.728H49.488V13.551H52.898C52.92 13.6757 52.9347 13.793 52.942 13.903C52.9493 14.0057 52.953 14.1083 52.953 14.211C52.953 14.8857 52.799 15.4797 52.491 15.993C52.1903 16.499 51.7797 16.895 51.259 17.181C50.7383 17.467 50.159 17.61 49.521 17.61ZM54.4999 17.5V9.8H59.3509V10.944H55.6879V12.979H58.7459V14.123H55.6879V16.356H59.3509V17.5H54.4999ZM62.7197 17.5V10.944H60.5637V9.8H66.1297V10.944H63.9077V17.5H62.7197ZM70.3916 17.5V16.4H71.6346V10.9H70.3916V9.8H74.0656V10.9H72.8226V16.4H74.0656V17.5H70.3916ZM77.3935 17.5V10.944H75.2375V9.8H80.8035V10.944H78.5815V17.5H77.3935ZM88.5744 17.61C88.0318 17.61 87.5294 17.511 87.0674 17.313C86.6128 17.115 86.2131 16.84 85.8684 16.488C85.5311 16.1287 85.2671 15.7107 85.0764 15.234C84.8931 14.75 84.8014 14.222 84.8014 13.65C84.8014 13.078 84.8931 12.5537 85.0764 12.077C85.2671 11.593 85.5311 11.175 85.8684 10.823C86.2131 10.4637 86.6128 10.185 87.0674 9.987C87.5294 9.789 88.0318 9.69 88.5744 9.69C89.1171 9.69 89.6158 9.789 90.0704 9.987C90.5324 10.185 90.9321 10.4637 91.2694 10.823C91.6141 11.1823 91.8781 11.604 92.0614 12.088C92.2521 12.5647 92.3474 13.0853 92.3474 13.65C92.3474 14.2147 92.2521 14.739 92.0614 15.223C91.8781 15.6997 91.6141 16.1177 91.2694 16.477C90.9321 16.8363 90.5324 17.115 90.0704 17.313C89.6158 17.511 89.1171 17.61 88.5744 17.61ZM88.5744 16.455C89.0658 16.455 89.5058 16.334 89.8944 16.092C90.2831 15.85 90.5874 15.5163 90.8074 15.091C91.0274 14.6657 91.1374 14.1853 91.1374 13.65C91.1374 13.1147 91.0274 12.6343 90.8074 12.209C90.5874 11.7837 90.2831 11.45 89.8944 11.208C89.5058 10.966 89.0658 10.845 88.5744 10.845C88.0758 10.845 87.6321 10.966 87.2434 11.208C86.8621 11.45 86.5614 11.7837 86.3414 12.209C86.1214 12.627 86.0114 13.1073 86.0114 13.65C86.0114 14.1927 86.1214 14.6767 86.3414 15.102C86.5614 15.52 86.8621 15.85 87.2434 16.092C87.6321 16.334 88.0758 16.455 88.5744 16.455ZM93.9559 17.5V9.8H95.0229L99.4999 15.795C99.4413 15.3477 99.3973 14.8307 99.3679 14.244C99.3459 13.6573 99.3349 13.0193 99.3349 12.33V9.8H100.523V17.5H99.4339L94.9569 11.626C95.0083 12.264 95.0486 12.759 95.0779 13.111C95.1073 13.4557 95.1256 13.716 95.1329 13.892C95.1403 14.0607 95.1439 14.1963 95.1439 14.299V17.5H93.9559Z" fill="white"></path><path d="M52.398 37.68C51.486 37.68 50.634 37.518 49.842 37.194C49.05 36.858 48.354 36.396 47.754 35.808C47.154 35.22 46.686 34.536 46.35 33.756C46.026 32.964 45.864 32.112 45.864 31.2C45.864 30.3 46.026 29.46 46.35 28.68C46.686 27.9 47.148 27.222 47.736 26.646C48.336 26.058 49.032 25.602 49.824 25.278C50.616 24.954 51.468 24.792 52.38 24.792C53.016 24.792 53.634 24.882 54.234 25.062C54.846 25.242 55.398 25.494 55.89 25.818C56.382 26.142 56.784 26.514 57.096 26.934L55.836 28.248C54.744 27.204 53.592 26.682 52.38 26.682C51.528 26.682 50.76 26.88 50.076 27.276C49.392 27.672 48.846 28.212 48.438 28.896C48.042 29.58 47.844 30.348 47.844 31.2C47.844 31.824 47.964 32.418 48.204 32.982C48.444 33.534 48.774 34.02 49.194 34.44C49.626 34.86 50.118 35.19 50.67 35.43C51.234 35.67 51.828 35.79 52.452 35.79C53.088 35.79 53.664 35.67 54.18 35.43C54.708 35.19 55.128 34.866 55.44 34.458C55.764 34.038 55.926 33.576 55.926 33.072V32.964H52.344V31.038H57.924C57.96 31.242 57.984 31.434 57.996 31.614C58.008 31.782 58.014 31.95 58.014 32.118C58.014 33.222 57.762 34.194 57.258 35.034C56.766 35.862 56.094 36.51 55.242 36.978C54.39 37.446 53.442 37.68 52.398 37.68ZM64.3253 37.68C63.4013 37.68 62.5733 37.47 61.8413 37.05C61.1213 36.618 60.5513 36.036 60.1313 35.304C59.7113 34.56 59.5013 33.714 59.5013 32.766C59.5013 31.818 59.7113 30.978 60.1313 30.246C60.5513 29.502 61.1213 28.92 61.8413 28.5C62.5733 28.068 63.4013 27.852 64.3253 27.852C65.2373 27.852 66.0533 28.068 66.7733 28.5C67.5053 28.92 68.0813 29.502 68.5013 30.246C68.9213 30.978 69.1313 31.818 69.1313 32.766C69.1313 33.714 68.9213 34.56 68.5013 35.304C68.0813 36.036 67.5053 36.618 66.7733 37.05C66.0533 37.47 65.2373 37.68 64.3253 37.68ZM64.3253 35.988C64.8893 35.988 65.3933 35.85 65.8373 35.574C66.2813 35.286 66.6293 34.902 66.8813 34.422C67.1333 33.93 67.2533 33.378 67.2413 32.766C67.2533 32.142 67.1333 31.59 66.8813 31.11C66.6293 30.618 66.2813 30.234 65.8373 29.958C65.3933 29.682 64.8893 29.544 64.3253 29.544C63.7613 29.544 63.2513 29.688 62.7953 29.976C62.3513 30.252 62.0033 30.636 61.7513 31.128C61.4993 31.608 61.3793 32.154 61.3913 32.766C61.3793 33.378 61.4993 33.93 61.7513 34.422C62.0033 34.902 62.3513 35.286 62.7953 35.574C63.2513 35.85 63.7613 35.988 64.3253 35.988ZM75.3995 37.68C74.4755 37.68 73.6475 37.47 72.9155 37.05C72.1955 36.618 71.6255 36.036 71.2055 35.304C70.7855 34.56 70.5755 33.714 70.5755 32.766C70.5755 31.818 70.7855 30.978 71.2055 30.246C71.6255 29.502 72.1955 28.92 72.9155 28.5C73.6475 28.068 74.4755 27.852 75.3995 27.852C76.3115 27.852 77.1275 28.068 77.8475 28.5C78.5795 28.92 79.1555 29.502 79.5755 30.246C79.9955 30.978 80.2055 31.818 80.2055 32.766C80.2055 33.714 79.9955 34.56 79.5755 35.304C79.1555 36.036 78.5795 36.618 77.8475 37.05C77.1275 37.47 76.3115 37.68 75.3995 37.68ZM75.3995 35.988C75.9635 35.988 76.4675 35.85 76.9115 35.574C77.3555 35.286 77.7035 34.902 77.9555 34.422C78.2075 33.93 78.3275 33.378 78.3155 32.766C78.3275 32.142 78.2075 31.59 77.9555 31.11C77.7035 30.618 77.3555 30.234 76.9115 29.958C76.4675 29.682 75.9635 29.544 75.3995 29.544C74.8355 29.544 74.3255 29.688 73.8695 29.976C73.4255 30.252 73.0775 30.636 72.8255 31.128C72.5735 31.608 72.4535 32.154 72.4655 32.766C72.4535 33.378 72.5735 33.93 72.8255 34.422C73.0775 34.902 73.4255 35.286 73.8695 35.574C74.3255 35.85 74.8355 35.988 75.3995 35.988ZM86.4557 41.64C85.7837 41.64 85.1117 41.532 84.4397 41.316C83.7797 41.112 83.2457 40.842 82.8377 40.506L83.5217 39.066C83.8817 39.342 84.3257 39.564 84.8537 39.732C85.3937 39.9 85.9277 39.984 86.4557 39.984C88.4597 39.984 89.4617 39.036 89.4617 37.14V36.006C89.2937 36.306 89.0417 36.582 88.7057 36.834C88.3817 37.086 88.0097 37.29 87.5897 37.446C87.1817 37.602 86.7617 37.68 86.3297 37.68C85.4297 37.68 84.6257 37.47 83.9177 37.05C83.2217 36.618 82.6697 36.036 82.2617 35.304C81.8537 34.56 81.6497 33.714 81.6497 32.766C81.6497 31.818 81.8477 30.978 82.2437 30.246C82.6517 29.502 83.2037 28.92 83.8997 28.5C84.6077 28.068 85.3997 27.852 86.2757 27.852C86.9357 27.852 87.5537 28.002 88.1297 28.302C88.7057 28.602 89.1497 28.944 89.4617 29.328V28.05H91.3157V36.924C91.3157 38.424 90.8837 39.582 90.0197 40.398C89.1557 41.226 87.9677 41.64 86.4557 41.64ZM86.5277 35.97C87.1157 35.97 87.6377 35.832 88.0937 35.556C88.5497 35.28 88.9037 34.902 89.1557 34.422C89.4077 33.942 89.5337 33.39 89.5337 32.766C89.5337 32.142 89.4017 31.59 89.1377 31.11C88.8857 30.618 88.5317 30.234 88.0757 29.958C87.6317 29.682 87.1157 29.544 86.5277 29.544C85.9517 29.544 85.4357 29.688 84.9797 29.976C84.5357 30.252 84.1817 30.636 83.9177 31.128C83.6657 31.608 83.5397 32.154 83.5397 32.766C83.5397 33.378 83.6657 33.93 83.9177 34.422C84.1817 34.902 84.5357 35.28 84.9797 35.556C85.4357 35.832 85.9517 35.97 86.5277 35.97ZM93.9511 37.5V24.18H95.8051V37.5H93.9511ZM102.667 37.68C101.695 37.68 100.831 37.476 100.075 37.068C99.3309 36.648 98.7429 36.078 98.3109 35.358C97.8909 34.638 97.6809 33.81 97.6809 32.874C97.6809 31.878 97.8849 31.008 98.2929 30.264C98.7129 29.508 99.2829 28.92 100.003 28.5C100.735 28.068 101.569 27.846 102.505 27.834C103.321 27.846 104.053 28.05 104.701 28.446C105.361 28.842 105.877 29.382 106.249 30.066C106.633 30.75 106.813 31.536 106.789 32.424L106.771 33.216H99.5349C99.6429 34.068 99.9909 34.746 100.579 35.25C101.179 35.742 101.935 35.988 102.847 35.988C103.315 35.988 103.747 35.91 104.143 35.754C104.551 35.598 104.989 35.316 105.457 34.908L106.393 36.222C105.949 36.654 105.385 37.008 104.701 37.284C104.017 37.548 103.339 37.68 102.667 37.68ZM102.505 29.544C100.885 29.544 99.9189 30.276 99.6069 31.74H104.899V31.614C104.863 31.218 104.731 30.864 104.503 30.552C104.275 30.24 103.987 29.994 103.639 29.814C103.291 29.634 102.913 29.544 102.505 29.544ZM114.317 37.5V24.9H119.447C120.131 24.9 120.749 25.074 121.301 25.422C121.865 25.758 122.315 26.22 122.651 26.808C122.987 27.396 123.155 28.05 123.155 28.77C123.155 29.49 122.987 30.144 122.651 30.732C122.315 31.32 121.865 31.794 121.301 32.154C120.749 32.502 120.131 32.676 119.447 32.676H116.261V37.5H114.317ZM116.261 30.804H119.411C119.735 30.804 120.029 30.714 120.293 30.534C120.557 30.342 120.767 30.096 120.923 29.796C121.091 29.484 121.175 29.142 121.175 28.77C121.175 28.218 121.001 27.75 120.653 27.366C120.305 26.97 119.891 26.772 119.411 26.772H116.261V30.804ZM125.293 37.5V24.18H127.147V37.5H125.293ZM133.235 37.68C132.455 37.68 131.741 37.464 131.093 37.032C130.457 36.6 129.947 36.012 129.563 35.268C129.179 34.524 128.987 33.684 128.987 32.748C128.987 31.8 129.179 30.96 129.563 30.228C129.959 29.484 130.487 28.902 131.147 28.482C131.819 28.062 132.569 27.852 133.397 27.852C134.105 27.852 134.729 28.008 135.269 28.32C135.821 28.62 136.241 29.01 136.529 29.49V28.05H138.401V37.5H136.529V36.042C136.205 36.498 135.743 36.888 135.143 37.212C134.555 37.524 133.919 37.68 133.235 37.68ZM133.721 35.97C134.285 35.97 134.783 35.832 135.215 35.556C135.647 35.28 135.983 34.902 136.223 34.422C136.475 33.93 136.601 33.372 136.601 32.748C136.601 32.136 136.475 31.59 136.223 31.11C135.983 30.63 135.647 30.252 135.215 29.976C134.783 29.7 134.285 29.562 133.721 29.562C133.169 29.562 132.677 29.7 132.245 29.976C131.825 30.252 131.489 30.63 131.237 31.11C130.997 31.59 130.877 32.136 130.877 32.748C130.877 33.372 130.997 33.93 131.237 34.422C131.489 34.902 131.825 35.28 132.245 35.556C132.677 35.832 133.169 35.97 133.721 35.97ZM142.362 41.64L143.964 37.95L139.572 28.05H141.732L144.684 34.998C144.744 35.13 144.822 35.34 144.918 35.628L145.188 34.872L147.654 28.05H149.85L145.962 37.5L144.36 41.64H142.362Z" fill="white"></path></svg>